<svg width="40" height="40" viewBox="0 0 40 40" fill="none" xmlns="http://www.w3.org/2000/svg">
<path fill-rule="evenodd" clip-rule="evenodd" d="M15.1485 34.7613L15.1988 34.3105C12.9595 33.9396 10.9688 29.0868 10.645 26.8142C9.80223 20.8945 12.6165 15.3979 16.2568 11.3685C16.302 11.3182 16.3691 11.243 16.415 11.1922L17.4189 10.1779C20.6055 7.65967 24.091 6.18197 24.8089 5.42368C21.2697 1.16692 11.6126 1.99004 5.44582 2.21194C4.20817 9.38223 2.58082 16.8659 1.12905 23.9718C-0.843188 33.6248 -1.54221 37.9286 10.4205 37.9408C10.6939 37.3829 10.3479 34.5872 15.1488 34.7613H15.1485Z" fill="#6167B0"/>
<path fill-rule="evenodd" clip-rule="evenodd" d="M25.3576 5.56969C26.1681 6.87291 27.0872 7.66344 27.8936 9.17521C30.3808 13.8358 29.5706 18.8971 27.5239 23.2972C25.5565 27.5277 20.0362 33.1144 15.1989 34.3105L15.1486 34.7613C17.8891 38.7384 27.3961 37.9264 30.4523 37.9412C35.4762 37.9657 34.2067 38.2872 35.204 33.3466C36.5487 26.6835 38.9769 15.9665 39.8152 10.2313C40.2794 7.05628 38.9984 4.71656 37.3081 3.46817C35.081 1.8234 32.509 2.10086 29.4351 2.23682C28.9131 3.00586 28.8872 3.56004 28.7112 4.478L25.3572 5.56969H25.3576Z" fill="#FB3B6F"/>
<path fill-rule="evenodd" clip-rule="evenodd" d="M15.1989 34.3104C20.0362 33.1142 25.5565 27.5272 27.5239 23.2971C29.5706 18.8966 30.3808 13.8356 27.8936 9.17505C27.0868 7.66327 26.1681 6.87275 25.3576 5.56953L24.8089 5.42432C24.091 6.18224 20.6055 7.65994 17.419 10.1786L16.4151 11.1929C16.3695 11.2432 16.3025 11.3188 16.2569 11.3692C12.6162 15.3985 9.80193 20.8948 10.6451 26.8148C10.9685 29.0875 12.9596 33.9399 15.1989 34.3111V34.3104Z" fill="#393988"/>
</svg>
