<svg width="42" height="30" viewBox="0 0 42 30" fill="none" xmlns="http://www.w3.org/2000/svg">
<path fill-rule="evenodd" clip-rule="evenodd" d="M16.6237 27.3011L16.6657 26.9254C14.7996 26.6164 13.1406 22.5724 12.8708 20.6785C12.1685 15.7454 14.5137 11.1649 17.5474 7.80713C17.585 7.76514 17.6409 7.70247 17.6792 7.66018L18.5158 6.81495C21.1712 4.71639 24.0758 3.48498 24.6741 2.85307C21.7247 -0.694237 13.6772 -0.0082997 8.53819 0.176613C7.50681 6.15186 6.15068 12.3883 4.94088 18.3098C3.29734 26.354 2.71482 29.9405 12.6838 29.9507C12.9116 29.4858 12.6232 27.156 16.624 27.3011H16.6237Z" fill="#6167B0"/>
<path fill-rule="evenodd" clip-rule="evenodd" d="M25.1313 2.9747C25.8068 4.06072 26.5726 4.71949 27.2447 5.97931C29.3173 9.86309 28.6422 14.0809 26.9366 17.7477C25.2971 21.2731 20.6968 25.9286 16.6658 26.9254L16.6238 27.3011C18.9076 30.6153 26.8301 29.9386 29.3769 29.951C33.5635 29.9714 32.5056 30.2393 33.3366 26.1222C34.4572 20.5695 36.4808 11.6388 37.1794 6.85942C37.5662 4.21353 36.4987 2.26376 35.0901 1.22343C33.2341 -0.147206 31.0908 0.0840121 28.5292 0.197306C28.0942 0.838173 28.0726 1.29999 27.926 2.06496L25.131 2.9747H25.1313Z" fill="#FB3B6F"/>
<path fill-rule="evenodd" clip-rule="evenodd" d="M16.6658 26.9253C20.6969 25.9285 25.2972 21.2727 26.9367 17.7476C28.6423 14.0805 29.3174 9.86304 27.2448 5.97925C26.5724 4.71944 25.8068 4.06067 25.1314 2.97465L24.6742 2.85364C24.0759 3.48524 21.1714 4.71666 18.5159 6.81553L17.6793 7.66076C17.6413 7.70274 17.5855 7.76572 17.5475 7.8077C14.5136 11.1655 12.1684 15.7457 12.871 20.6791C13.1405 22.5729 14.7997 26.6166 16.6658 26.926V26.9253Z" fill="#393988"/>
</svg>
