<svg width="90" height="64" viewBox="0 0 90 64" fill="none" xmlns="http://www.w3.org/2000/svg">
<path fill-rule="evenodd" clip-rule="evenodd" d="M36.6925 57.7273L36.7813 56.9329C32.8354 56.2795 29.3276 47.7286 28.7571 43.724C27.2721 33.2932 32.231 23.6078 38.6455 16.5079C38.7251 16.4192 38.8433 16.2866 38.9242 16.1972L40.6932 14.41C46.308 9.97267 52.4497 7.36888 53.7147 6.03272C47.4784 -1.46794 30.4621 -0.0175495 19.5959 0.373443C17.415 13.0079 14.5476 26.1946 11.9895 38.7155C8.51425 55.7247 7.28253 63.3083 28.3615 63.3298C28.8433 62.3468 28.2336 57.4205 36.6931 57.7273H36.6925Z" fill="#6167B0"/>
<path fill-rule="evenodd" clip-rule="evenodd" d="M54.6816 6.28996C56.1098 8.58631 57.7292 9.97926 59.1502 12.6431C63.5327 20.8553 62.1052 29.7737 58.4988 37.527C55.0321 44.9813 45.3049 54.8253 36.7814 56.933L36.6926 57.7274C41.5216 64.7352 58.2736 63.3044 63.6587 63.3305C72.5112 63.3736 70.2743 63.9402 72.0314 55.2346C74.4009 43.4937 78.6796 24.6098 80.1568 14.5041C80.9747 8.90942 78.7175 4.7867 75.739 2.58696C71.8147 -0.31122 67.2827 0.177684 61.8663 0.41724C60.9466 1.77233 60.9009 2.74884 60.5908 4.36633L54.6809 6.28996H54.6816Z" fill="#FB3B6F"/>
<path fill-rule="evenodd" clip-rule="evenodd" d="M36.7814 56.9328C45.3049 54.8251 55.0321 44.9805 58.4988 37.5268C62.1052 29.7729 63.5328 20.8551 59.1502 12.643C57.7286 9.97911 56.1098 8.58616 54.6816 6.28981L53.7149 6.03394C52.4498 7.36945 46.3082 9.97324 40.6933 14.4112L38.9244 16.1984C38.8441 16.2872 38.7259 16.4204 38.6456 16.5091C32.2305 23.609 27.2716 33.2938 28.7572 43.7252C29.3271 47.7298 32.8356 56.2801 36.7814 56.9341V56.9328Z" fill="#393988"/>
</svg>
