<svg width="42" height="30" viewBox="0 0 42 30" fill="none" xmlns="http://www.w3.org/2000/svg">
<path fill-rule="evenodd" clip-rule="evenodd" d="M9.46576 19.2589H6.69474V15.4256H9.14247C9.92907 15.4256 10.8883 15.5831 11.2778 16.1999C11.6088 16.7239 11.5382 17.6604 11.3318 18.2153C11.2379 18.4677 11.0896 18.6013 10.9091 18.7624C10.5767 19.0586 9.94239 19.2589 9.46576 19.2589ZM8.40352 12.9776H6.69474V9.28308C6.69474 9.09298 6.78134 9.19098 7.20197 9.19098C8.27123 9.19138 9.58657 9.05928 10.3915 9.46568C11.3274 9.93828 11.2883 11.782 10.6566 12.4137C10.2125 12.8577 9.28989 12.9776 8.40356 12.9776H8.40352ZM3.00004 6.55838V21.7065C3.00004 21.8656 3.03421 21.8852 3.0462 22.0298H9.28103C10.0336 22.0298 10.6129 21.9753 11.2262 21.8503C12.3893 21.614 13.7176 20.8483 14.3991 19.8047C15.1045 18.7244 15.4145 17.1412 14.8829 15.9198C14.808 15.7481 14.714 15.5537 14.6124 15.4052C14.1418 14.7187 13.3067 14.2645 12.5185 14.0353C12.3356 13.982 12.3351 14.0356 12.2367 13.9012C12.4793 13.8813 12.9771 13.5776 13.1757 13.4549C14.5282 12.6187 15.0609 11.1045 14.6577 9.54088C14.5805 9.24148 14.4602 8.86258 14.3308 8.62078C13.4559 6.98438 11.1743 6.41968 9.18863 6.41968H3.13856C3.03213 6.41968 3 6.45178 3 6.55838H3.00004Z" fill="#393885"/>
<path fill-rule="evenodd" clip-rule="evenodd" d="M21.6121 19.3051C19.8166 19.3051 18.8146 18.0119 18.1483 18.0119C17.75 18.0119 17.6081 17.9747 17.259 18.3693C17.1779 18.461 17.1369 18.5312 17.0713 18.6436L16.1624 20.1363C16.5108 20.6567 17.7995 21.3232 18.412 21.5815C20.4133 22.4248 23.2871 22.5412 25.096 21.1724L25.8974 20.4498C26.7562 19.5234 27.4368 17.6405 27.0073 15.8959C26.8538 15.2724 26.3923 14.4165 25.9145 14.0325C23.7887 12.3244 20.1804 12.4074 20.1804 10.807C20.1804 10.3395 20.2185 10.0437 20.5341 9.68321C20.6423 9.55931 20.609 9.58361 20.7513 9.48451C21.5283 8.94291 22.9685 9.10871 23.7836 9.51311C24.3913 9.81481 25.345 10.5751 25.9153 9.75291L26.8771 7.94371C26.8771 7.81431 26.7995 7.80261 26.7145 7.73671C26.2974 7.41461 26.004 7.17281 25.4981 6.96751C24.2617 6.46511 23.5843 6.23511 21.9816 6.23511C18.9319 6.23511 16.5305 8.45391 16.7597 11.1785C16.847 12.2166 16.93 12.851 17.6202 13.737C19.0722 15.6012 22.1476 15.4017 23.3322 16.5687C23.6323 16.8646 23.7013 17.3654 23.6452 17.8736C23.5953 18.3262 23.396 18.715 23.0182 18.956C22.6938 19.1629 22.1247 19.3051 21.6121 19.3051Z" fill="#393885"/>
<path fill-rule="evenodd" clip-rule="evenodd" d="M29.1862 6.46592V21.3369C29.1862 21.4796 29.1632 21.4412 29.1634 21.5219C29.1636 21.6026 29.1862 21.5642 29.1862 21.7065C29.1862 21.8977 29.0622 22.1222 29.3248 22.1222H32.8346C32.9412 22.1222 32.9733 22.0901 32.9733 21.9835V10.0221C32.9733 9.37712 32.6826 8.51462 32.4098 8.04512C31.7949 6.98552 30.858 6.39262 29.6441 6.14612C28.9554 6.00622 29.1862 6.11092 29.1862 6.46592Z" fill="#393885"/>
<path fill-rule="evenodd" clip-rule="evenodd" d="M33.3428 0.36946C33.3428 1.37742 33.1641 2.19407 32.5916 2.98957C32.3439 3.33363 32.1678 3.50605 31.8771 3.79917C31.5474 4.13187 31.1499 4.23728 30.9873 4.47985C31.7729 4.49748 32.7068 5.1617 33.239 5.69229C34.0192 6.4701 34.1681 6.9741 34.4048 7.9898H34.5435C34.6607 7.4867 35.5157 6.7445 35.9378 6.4745C36.5134 6.1065 37.2666 5.81925 38.1922 5.81925C39.1417 5.81925 39.2224 6.1026 38.6005 5.31805C37.9285 4.47083 37.6158 2.82067 37.9814 1.72932C38.0366 1.56473 38.0966 1.42954 38.1652 1.26652C38.2392 1.09202 38.3129 0.99621 38.3305 0.78511C38.0335 0.79173 38.0433 0.8993 37.7318 1.01757C36.4884 1.4895 34.9334 1.19363 33.844 0.37623C33.7582 0.31189 33.6873 0.2671 33.6093 0.19531C33.4882 0.0843701 33.5086 0.04432 33.3428 0C33.2637 0.16443 33.3428 0.15875 33.3428 0.36946Z" fill="#F9AE3E"/>
<path d="M3.58096 25.8574C3.67254 25.6723 3.7832 25.5273 3.91294 25.4223C4.04267 25.3155 4.19817 25.2621 4.37942 25.2621C4.44238 25.2621 4.50153 25.2697 4.55686 25.285C4.61218 25.2983 4.66179 25.3193 4.70567 25.3479L4.66274 25.8116C4.65511 25.844 4.64271 25.8669 4.62554 25.8802C4.61028 25.8917 4.58929 25.8974 4.56258 25.8974C4.53396 25.8974 4.49294 25.8926 4.43952 25.8831C4.3861 25.8717 4.32981 25.8659 4.27067 25.8659C4.18481 25.8659 4.1085 25.8783 4.04172 25.9031C3.97685 25.9279 3.91771 25.9642 3.86428 26.0119C3.81277 26.0596 3.76698 26.1178 3.72691 26.1865C3.68685 26.2552 3.64964 26.3334 3.6153 26.4211V28.2356H3V25.3165H3.35773C3.4226 25.3165 3.46744 25.3289 3.49224 25.3537C3.51704 25.3766 3.53422 25.4176 3.54375 25.4767L3.58096 25.8574Z" fill="#393885"/>
<path d="M7.57407 25.3165V28.2356H7.20202C7.11998 28.2356 7.06752 28.1965 7.04462 28.1182L6.99883 27.8463C6.93778 27.9112 6.87291 27.9704 6.80423 28.0238C6.73745 28.0772 6.6659 28.123 6.58959 28.1612C6.51327 28.1993 6.43123 28.2289 6.34346 28.2499C6.25761 28.2709 6.16508 28.2814 6.06586 28.2814C5.9056 28.2814 5.76441 28.2546 5.64231 28.2012C5.5202 28.1478 5.41717 28.0724 5.33323 27.9751C5.25119 27.8778 5.18918 27.7614 5.1472 27.626C5.10523 27.4886 5.08424 27.3379 5.08424 27.1738V25.3165H5.69954V27.1738C5.69954 27.3703 5.74438 27.523 5.83405 27.6317C5.92563 27.7405 6.06396 27.7948 6.24902 27.7948C6.38448 27.7948 6.51041 27.7643 6.62679 27.7033C6.74508 27.6403 6.85574 27.5544 6.95877 27.4457V25.3165H7.57407Z" fill="#393885"/>
<path d="M8.32128 28.2356V25.3165H8.69333C8.77727 25.3165 8.83069 25.3556 8.85359 25.4338L8.89366 25.6885C8.94708 25.6274 9.00241 25.5721 9.05964 25.5225C9.11688 25.471 9.17793 25.4271 9.2428 25.3909C9.30958 25.3527 9.38017 25.3231 9.45458 25.3021C9.5309 25.2812 9.61294 25.2707 9.7007 25.2707C9.79419 25.2707 9.88005 25.284 9.95827 25.3107C10.0365 25.3374 10.1052 25.3756 10.1643 25.4252C10.2254 25.4748 10.2778 25.5349 10.3217 25.6055C10.3656 25.6761 10.4019 25.7553 10.4305 25.843C10.4744 25.7419 10.5297 25.6551 10.5965 25.5826C10.6632 25.5101 10.7377 25.451 10.8197 25.4052C10.9017 25.3594 10.9885 25.326 11.0801 25.305C11.1736 25.2821 11.2681 25.2707 11.3634 25.2707C11.5199 25.2707 11.6592 25.2955 11.7813 25.3451C11.9053 25.3947 12.0093 25.4672 12.0932 25.5626C12.1791 25.6561 12.2439 25.7715 12.2878 25.9089C12.3317 26.0462 12.3537 26.2027 12.3537 26.3782V28.2356H11.7384V26.3782C11.7384 26.1722 11.6935 26.0176 11.6038 25.9146C11.5161 25.8097 11.3854 25.7572 11.2118 25.7572C11.1335 25.7572 11.0601 25.7705 10.9914 25.7973C10.9227 25.824 10.8626 25.8631 10.8111 25.9146C10.7596 25.9661 10.7186 26.031 10.688 26.1092C10.6594 26.1855 10.6451 26.2752 10.6451 26.3782V28.2356H10.0298V26.3782C10.0298 26.1645 9.98689 26.0081 9.90103 25.9089C9.81518 25.8077 9.68925 25.7572 9.52327 25.7572C9.40879 25.7572 9.3029 25.7868 9.2056 25.8459C9.1083 25.9031 9.01862 25.9823 8.93658 26.0834V28.2356H8.32128Z" fill="#393885"/>
<path d="M14.6321 26.9592C14.4127 26.9668 14.2277 26.9849 14.0769 27.0135C13.9262 27.0403 13.8041 27.0756 13.7106 27.1194C13.6171 27.1614 13.5494 27.212 13.5074 27.2711C13.4674 27.3303 13.4473 27.3951 13.4473 27.4657C13.4473 27.5344 13.4578 27.5936 13.4788 27.6432C13.5017 27.6909 13.5322 27.7309 13.5704 27.7634C13.6105 27.7939 13.6562 27.8168 13.7078 27.832C13.7612 27.8454 13.8194 27.8521 13.8823 27.8521C14.0426 27.8521 14.18 27.8225 14.2944 27.7634C14.4108 27.7023 14.5234 27.6145 14.6321 27.5001V26.9592ZM13.0009 25.7228C13.331 25.4157 13.724 25.2621 14.18 25.2621C14.3479 25.2621 14.4967 25.2897 14.6264 25.3451C14.7581 25.3985 14.8678 25.4748 14.9555 25.574C15.0452 25.6732 15.1129 25.7915 15.1587 25.9289C15.2064 26.0644 15.2303 26.2151 15.2303 26.3811V28.2356H14.9555C14.8964 28.2356 14.8516 28.227 14.821 28.2098C14.7905 28.1907 14.7647 28.1535 14.7438 28.0982L14.6837 27.8607C14.6092 27.9274 14.5358 27.9875 14.4633 28.041C14.3908 28.0925 14.3154 28.1364 14.2372 28.1726C14.1609 28.2089 14.0779 28.2356 13.9882 28.2527C13.9005 28.2718 13.8032 28.2814 13.6963 28.2814C13.578 28.2814 13.4674 28.2651 13.3643 28.2327C13.2632 28.2003 13.1755 28.1516 13.101 28.0867C13.0266 28.02 12.9675 27.9379 12.9236 27.8406C12.8816 27.7433 12.8606 27.6288 12.8606 27.4972C12.8606 27.3846 12.8902 27.2749 12.9494 27.1681C13.0104 27.0612 13.1096 26.9658 13.247 26.8819C13.3863 26.796 13.5685 26.7255 13.7936 26.6701C14.0207 26.6148 14.3002 26.5833 14.6321 26.5757V26.3811C14.6321 26.1712 14.5873 26.0148 14.4976 25.9117C14.408 25.8087 14.2763 25.7572 14.1027 25.7572C13.9844 25.7572 13.8852 25.7724 13.8051 25.803C13.7249 25.8316 13.6553 25.8631 13.5961 25.8974C13.537 25.9318 13.4845 25.9642 13.4387 25.9947C13.393 26.0233 13.3443 26.0376 13.2928 26.0376C13.2508 26.0376 13.2146 26.0272 13.184 26.0062C13.1554 25.9833 13.1316 25.9556 13.1125 25.9232L13.0009 25.7228Z" fill="#393885"/>
<path d="M16.5664 25.6627C16.6866 25.5445 16.8182 25.45 16.9613 25.3794C17.1044 25.3069 17.2713 25.2707 17.4621 25.2707C17.6224 25.2707 17.7626 25.2974 17.8828 25.3508C18.0049 25.4042 18.107 25.4796 18.189 25.5769C18.273 25.6742 18.336 25.7915 18.3779 25.9289C18.4199 26.0644 18.4409 26.2141 18.4409 26.3782V28.2356H17.8284V26.3782C17.8284 26.1817 17.7827 26.0291 17.6911 25.9203C17.6014 25.8116 17.464 25.7572 17.279 25.7572C17.1416 25.7572 17.0138 25.7887 16.8955 25.8516C16.7791 25.9146 16.6694 26.0004 16.5664 26.1092V28.2356H15.9511V24H16.5664V25.6627Z" fill="#393885"/>
<path d="M19.8005 25.3165V28.2356H19.1852V25.3165H19.8005ZM19.9036 24.435C19.9036 24.4903 19.8921 24.5428 19.8692 24.5924C19.8482 24.642 19.8187 24.6859 19.7805 24.7241C19.7423 24.7603 19.6975 24.7899 19.646 24.8128C19.5964 24.8338 19.543 24.8443 19.4857 24.8443C19.4304 24.8443 19.3779 24.8338 19.3283 24.8128C19.2806 24.7899 19.2387 24.7603 19.2024 24.7241C19.1662 24.6859 19.1366 24.642 19.1137 24.5924C19.0927 24.5428 19.0822 24.4903 19.0822 24.435C19.0822 24.3778 19.0927 24.3243 19.1137 24.2747C19.1366 24.2251 19.1662 24.1822 19.2024 24.146C19.2387 24.1078 19.2806 24.0782 19.3283 24.0572C19.3779 24.0343 19.4304 24.0229 19.4857 24.0229C19.543 24.0229 19.5964 24.0343 19.646 24.0572C19.6975 24.0782 19.7423 24.1078 19.7805 24.146C19.8187 24.1822 19.8482 24.2251 19.8692 24.2747C19.8921 24.3243 19.9036 24.3778 19.9036 24.435Z" fill="#393885"/>
<path d="M20.5736 28.2356V25.3165H20.9457C21.0296 25.3165 21.0831 25.3556 21.106 25.4338L21.146 25.6885C21.1994 25.6274 21.2548 25.5721 21.312 25.5225C21.3692 25.471 21.4303 25.4271 21.4952 25.3909C21.5619 25.3527 21.6325 25.3231 21.7069 25.3021C21.7833 25.2812 21.8653 25.2707 21.9531 25.2707C22.0466 25.2707 22.1324 25.284 22.2106 25.3107C22.2889 25.3374 22.3575 25.3756 22.4167 25.4252C22.4777 25.4748 22.5302 25.5349 22.5741 25.6055C22.618 25.6761 22.6542 25.7553 22.6828 25.843C22.7267 25.7419 22.7821 25.6551 22.8488 25.5826C22.9156 25.5101 22.99 25.451 23.0721 25.4052C23.1541 25.3594 23.2409 25.326 23.3325 25.305C23.426 25.2821 23.5204 25.2707 23.6158 25.2707C23.7723 25.2707 23.9115 25.2955 24.0336 25.3451C24.1577 25.3947 24.2616 25.4672 24.3456 25.5626C24.4314 25.6561 24.4963 25.7715 24.5402 25.9089C24.5841 26.0462 24.606 26.2027 24.606 26.3782V28.2356H23.9907V26.3782C23.9907 26.1722 23.9459 26.0176 23.8562 25.9146C23.7684 25.8097 23.6378 25.7572 23.4641 25.7572C23.3859 25.7572 23.3125 25.7705 23.2438 25.7973C23.1751 25.824 23.115 25.8631 23.0635 25.9146C23.012 25.9661 22.9709 26.031 22.9404 26.1092C22.9118 26.1855 22.8975 26.2752 22.8975 26.3782V28.2356H22.2822V26.3782C22.2822 26.1645 22.2393 26.0081 22.1534 25.9089C22.0675 25.8077 21.9416 25.7572 21.7756 25.7572C21.6612 25.7572 21.5553 25.7868 21.458 25.8459C21.3607 25.9031 21.271 25.9823 21.1889 26.0834V28.2356H20.5736Z" fill="#393885"/>
<path d="M25.9401 27.5029C26.026 27.6136 26.1194 27.6918 26.2206 27.7376C26.3236 27.7815 26.4371 27.8034 26.5611 27.8034C26.8015 27.8034 26.9885 27.7157 27.122 27.5401C27.2575 27.3646 27.3252 27.1032 27.3252 26.756C27.3252 26.5766 27.31 26.424 27.2794 26.2981C27.2489 26.1702 27.205 26.0663 27.1478 25.9861C27.0906 25.906 27.0209 25.8478 26.9389 25.8116C26.8568 25.7753 26.7643 25.7572 26.6613 25.7572C26.5048 25.7572 26.3694 25.7915 26.2549 25.8602C26.1423 25.927 26.0374 26.0233 25.9401 26.1493V27.5029ZM25.9086 25.74C26.0307 25.5969 26.169 25.4815 26.3236 25.3937C26.48 25.306 26.6613 25.2621 26.8673 25.2621C27.0314 25.2621 27.1802 25.2955 27.3138 25.3622C27.4473 25.4271 27.5618 25.5225 27.6572 25.6484C27.7526 25.7744 27.8261 25.9308 27.8776 26.1178C27.931 26.3028 27.9577 26.5156 27.9577 26.756C27.9577 26.9716 27.9281 27.1729 27.869 27.3598C27.8118 27.5449 27.7288 27.7061 27.62 27.8435C27.5113 27.9789 27.3796 28.0858 27.2251 28.164C27.0705 28.2403 26.896 28.2785 26.7014 28.2785C26.5296 28.2785 26.3837 28.2508 26.2635 28.1955C26.1452 28.1402 26.0374 28.0639 25.9401 27.9665V29.2057H25.3248V25.3165H25.6968C25.7808 25.3165 25.8342 25.3556 25.8571 25.4338L25.9086 25.74Z" fill="#393885"/>
<path d="M29.1966 25.3165V28.2356H28.5813V25.3165H29.1966ZM29.2997 24.435C29.2997 24.4903 29.2882 24.5428 29.2653 24.5924C29.2443 24.642 29.2148 24.6859 29.1766 24.7241C29.1384 24.7603 29.0936 24.7899 29.0421 24.8128C28.9925 24.8338 28.9391 24.8443 28.8818 24.8443C28.8265 24.8443 28.774 24.8338 28.7244 24.8128C28.6767 24.7899 28.6347 24.7603 28.5985 24.7241C28.5622 24.6859 28.5327 24.642 28.5098 24.5924C28.4888 24.5428 28.4783 24.4903 28.4783 24.435C28.4783 24.3778 28.4888 24.3243 28.5098 24.2747C28.5327 24.2251 28.5622 24.1822 28.5985 24.146C28.6347 24.1078 28.6767 24.0782 28.7244 24.0572C28.774 24.0343 28.8265 24.0229 28.8818 24.0229C28.9391 24.0229 28.9925 24.0343 29.0421 24.0572C29.0936 24.0782 29.1384 24.1078 29.1766 24.146C29.2148 24.1822 29.2443 24.2251 29.2653 24.2747C29.2882 24.3243 29.2997 24.3778 29.2997 24.435Z" fill="#393885"/>
<path d="M31.5295 26.9592C31.31 26.9668 31.125 26.9849 30.9743 27.0135C30.8235 27.0403 30.7014 27.0756 30.6079 27.1194C30.5144 27.1614 30.4467 27.212 30.4047 27.2711C30.3647 27.3303 30.3446 27.3951 30.3446 27.4657C30.3446 27.5344 30.3551 27.5936 30.3761 27.6432C30.399 27.6909 30.4295 27.7309 30.4677 27.7634C30.5078 27.7939 30.5536 27.8168 30.6051 27.832C30.6585 27.8454 30.7167 27.8521 30.7796 27.8521C30.9399 27.8521 31.0773 27.8225 31.1918 27.7634C31.3081 27.7023 31.4207 27.6145 31.5295 27.5001V26.9592ZM29.8982 25.7228C30.2283 25.4157 30.6213 25.2621 31.0773 25.2621C31.2452 25.2621 31.394 25.2897 31.5237 25.3451C31.6554 25.3985 31.7651 25.4748 31.8528 25.574C31.9425 25.6732 32.0102 25.7915 32.056 25.9289C32.1037 26.0644 32.1276 26.2151 32.1276 26.3811V28.2356H31.8528C31.7937 28.2356 31.7489 28.227 31.7183 28.2098C31.6878 28.1907 31.6621 28.1535 31.6411 28.0982L31.581 27.8607C31.5066 27.9274 31.4331 27.9875 31.3606 28.041C31.2881 28.0925 31.2127 28.1364 31.1345 28.1726C31.0582 28.2089 30.9752 28.2356 30.8855 28.2527C30.7978 28.2718 30.7005 28.2814 30.5936 28.2814C30.4753 28.2814 30.3647 28.2651 30.2616 28.2327C30.1605 28.2003 30.0728 28.1516 29.9984 28.0867C29.9239 28.02 29.8648 27.9379 29.8209 27.8406C29.7789 27.7433 29.758 27.6288 29.758 27.4972C29.758 27.3846 29.7875 27.2749 29.8467 27.1681C29.9077 27.0612 30.0069 26.9658 30.1443 26.8819C30.2836 26.796 30.4658 26.7255 30.6909 26.6701C30.918 26.6148 31.1975 26.5833 31.5295 26.5757V26.3811C31.5295 26.1712 31.4846 26.0148 31.3949 25.9117C31.3053 25.8087 31.1736 25.7572 31 25.7572C30.8817 25.7572 30.7825 25.7724 30.7024 25.803C30.6222 25.8316 30.5526 25.8631 30.4935 25.8974C30.4343 25.9318 30.3818 25.9642 30.3361 25.9947C30.2903 26.0233 30.2416 26.0376 30.1901 26.0376C30.1481 26.0376 30.1119 26.0272 30.0813 26.0062C30.0527 25.9833 30.0289 25.9556 30.0098 25.9232L29.8982 25.7228Z" fill="#393885"/>
<path d="M33.4236 25.7028C33.4866 25.6379 33.5514 25.5798 33.6182 25.5282C33.6869 25.4748 33.7594 25.429 33.8357 25.3909C33.912 25.3527 33.9931 25.3231 34.079 25.3021C34.1648 25.2812 34.2583 25.2707 34.3594 25.2707C34.5197 25.2707 34.6599 25.2974 34.7801 25.3508C34.9022 25.4042 35.0043 25.4796 35.0864 25.5769C35.1703 25.6742 35.2333 25.7915 35.2752 25.9289C35.3172 26.0644 35.3382 26.2141 35.3382 26.3782V28.2356H34.7258V26.3782C34.7258 26.1817 34.68 26.0291 34.5884 25.9203C34.4987 25.8116 34.3613 25.7572 34.1763 25.7572C34.0389 25.7572 33.9111 25.7887 33.7928 25.8516C33.6764 25.9146 33.5667 26.0004 33.4637 26.1092V28.2356H32.8484V25.3165H33.2204C33.3044 25.3165 33.3578 25.3556 33.3807 25.4338L33.4236 25.7028Z" fill="#393885"/>
</svg>
