<svg width="114" height="55" viewBox="0 0 114 55" fill="none" xmlns="http://www.w3.org/2000/svg">
<path fill-rule="evenodd" clip-rule="evenodd" d="M12.0019 37.7936L12.0385 37.4662C10.4121 37.1969 8.96631 33.6724 8.73117 32.0219C8.11909 27.7226 10.163 23.7305 12.8069 20.8041C12.8397 20.7675 12.8884 20.7129 12.9218 20.6761L13.6509 19.9394C15.9652 18.1105 18.4966 17.0373 19.018 16.4865C16.4476 13.395 9.43391 13.9928 4.95515 14.1539C4.05628 19.3615 2.87438 24.7967 1.82 29.9575C0.387616 36.9682 -0.120068 40.0939 8.56813 40.1028C8.76668 39.6976 8.51539 37.6672 12.0022 37.7936H12.0019Z" fill="#6167B0"/>
<path fill-rule="evenodd" clip-rule="evenodd" d="M19.4165 16.5925C20.0052 17.539 20.6727 18.1132 21.2584 19.2111C23.0647 22.596 22.4763 26.2719 20.9899 29.4676C19.561 32.5401 15.5517 36.5975 12.0385 37.4662L12.002 37.7936C13.9923 40.6821 20.897 40.0923 23.1166 40.1031C26.7654 40.1209 25.8434 40.3544 26.5677 36.7662C27.5443 31.9269 29.3079 24.1435 29.9167 19.9782C30.2538 17.6722 29.3235 15.9729 28.0958 15.0663C26.4783 13.8717 24.6104 14.0732 22.3779 14.172C21.9988 14.7305 21.9799 15.133 21.8521 15.7997L19.4162 16.5925H19.4165Z" fill="#FB3B6F"/>
<path fill-rule="evenodd" clip-rule="evenodd" d="M12.0385 37.4661C15.5517 36.5973 19.561 32.5396 20.9899 29.4674C22.4763 26.2715 23.0647 22.5958 21.2584 19.211C20.6724 18.113 20.0052 17.5389 19.4165 16.5924L19.018 16.4869C18.4966 17.0374 15.9652 18.1106 13.6509 19.9398L12.9218 20.6765C12.8887 20.7131 12.84 20.7679 12.8069 20.8045C10.1628 23.7309 8.11886 27.7227 8.7312 32.0223C8.96607 33.6728 10.4122 37.197 12.0385 37.4666V37.4661Z" fill="#393988"/>
<path d="M38.874 33.411C39.2528 33.411 39.5806 33.4741 39.8575 33.6004C40.1385 33.7266 40.3544 33.9058 40.5051 34.1379C40.6558 34.3701 40.7311 34.645 40.7311 34.9626C40.7311 35.2762 40.6558 35.5511 40.5051 35.7873C40.3544 36.0194 40.1385 36.1986 39.8575 36.3249C39.5806 36.447 39.2528 36.5081 38.874 36.5081H38.0127V37.6871H37.0231V33.411H38.874ZM38.8191 35.7018C39.1163 35.7018 39.3424 35.6386 39.4971 35.5124C39.6519 35.3821 39.7293 35.1988 39.7293 34.9626C39.7293 34.7223 39.6519 34.5391 39.4971 34.4128C39.3424 34.2825 39.1163 34.2173 38.8191 34.2173H38.0127V35.7018H38.8191Z" fill="#D85575"/>
<path d="M42.9283 37.736C42.5821 37.736 42.2706 37.6647 41.9937 37.5222C41.7208 37.3756 41.507 37.174 41.3522 36.9174C41.1975 36.6608 41.1201 36.3697 41.1201 36.0439C41.1201 35.7181 41.1975 35.4269 41.3522 35.1703C41.507 34.9137 41.7208 34.7142 41.9937 34.5716C42.2706 34.425 42.5821 34.3517 42.9283 34.3517C43.2745 34.3517 43.584 34.425 43.8568 34.5716C44.1297 34.7142 44.3435 34.9137 44.4983 35.1703C44.653 35.4269 44.7304 35.7181 44.7304 36.0439C44.7304 36.3697 44.653 36.6608 44.4983 36.9174C44.3435 37.174 44.1297 37.3756 43.8568 37.5222C43.584 37.6647 43.2745 37.736 42.9283 37.736ZM42.9283 36.9541C43.1727 36.9541 43.3722 36.8726 43.527 36.7097C43.6858 36.5427 43.7652 36.3208 43.7652 36.0439C43.7652 35.7669 43.6858 35.547 43.527 35.3841C43.3722 35.2171 43.1727 35.1337 42.9283 35.1337C42.6839 35.1337 42.4824 35.2171 42.3235 35.3841C42.1647 35.547 42.0853 35.7669 42.0853 36.0439C42.0853 36.3208 42.1647 36.5427 42.3235 36.7097C42.4824 36.8726 42.6839 36.9541 42.9283 36.9541Z" fill="#D85575"/>
<path d="M45.3674 33.1544H46.3203V37.6871H45.3674V33.1544Z" fill="#D85575"/>
<path d="M48.5304 34.3517C49.0394 34.3517 49.4304 34.4739 49.7033 34.7183C49.9761 34.9585 50.1126 35.323 50.1126 35.8117V37.6871H49.2207V37.2778C49.0415 37.5833 48.7075 37.736 48.2188 37.736C47.9663 37.736 47.7464 37.6932 47.5591 37.6077C47.3758 37.5222 47.2353 37.4041 47.1376 37.2534C47.0398 37.1027 46.991 36.9317 46.991 36.7403C46.991 36.4348 47.105 36.1945 47.3331 36.0194C47.5652 35.8443 47.9215 35.7568 48.4021 35.7568H49.1596C49.1596 35.5491 49.0965 35.3902 48.9702 35.2803C48.844 35.1662 48.6546 35.1092 48.4021 35.1092C48.227 35.1092 48.0539 35.1377 47.8829 35.1947C47.7159 35.2477 47.5733 35.321 47.4552 35.4147L47.1131 34.7488C47.2923 34.6226 47.5061 34.5248 47.7546 34.4556C48.0071 34.3863 48.2657 34.3517 48.5304 34.3517ZM48.4571 37.0946C48.62 37.0946 48.7646 37.0579 48.8908 36.9846C49.017 36.9072 49.1066 36.7952 49.1596 36.6486V36.3126H48.5059C48.115 36.3126 47.9195 36.4409 47.9195 36.6975C47.9195 36.8197 47.9663 36.9174 48.06 36.9907C48.1577 37.06 48.2901 37.0946 48.4571 37.0946Z" fill="#D85575"/>
<path d="M54.6232 33.411C55.002 33.411 55.3298 33.4741 55.6067 33.6004C55.8877 33.7266 56.1036 33.9058 56.2543 34.1379C56.4049 34.3701 56.4803 34.645 56.4803 34.9626C56.4803 35.2762 56.4049 35.5511 56.2543 35.7873C56.1036 36.0194 55.8877 36.1986 55.6067 36.3249C55.3298 36.447 55.002 36.5081 54.6232 36.5081H53.7619V37.6871H52.7723V33.411H54.6232ZM54.5682 35.7018C54.8655 35.7018 55.0916 35.6386 55.2463 35.5124C55.4011 35.3821 55.4784 35.1988 55.4784 34.9626C55.4784 34.7223 55.4011 34.5391 55.2463 34.4128C55.0916 34.2825 54.8655 34.2173 54.5682 34.2173H53.7619V35.7018H54.5682Z" fill="#D85575"/>
<path d="M58.6775 37.736C58.3313 37.736 58.0198 37.6647 57.7428 37.5222C57.47 37.3756 57.2562 37.174 57.1014 36.9174C56.9467 36.6608 56.8693 36.3697 56.8693 36.0439C56.8693 35.7181 56.9467 35.4269 57.1014 35.1703C57.2562 34.9137 57.47 34.7142 57.7428 34.5716C58.0198 34.425 58.3313 34.3517 58.6775 34.3517C59.0237 34.3517 59.3332 34.425 59.606 34.5716C59.8789 34.7142 60.0927 34.9137 60.2474 35.1703C60.4022 35.4269 60.4796 35.7181 60.4796 36.0439C60.4796 36.3697 60.4022 36.6608 60.2474 36.9174C60.0927 37.174 59.8789 37.3756 59.606 37.5222C59.3332 37.6647 59.0237 37.736 58.6775 37.736ZM58.6775 36.9541C58.9218 36.9541 59.1214 36.8726 59.2761 36.7097C59.435 36.5427 59.5144 36.3208 59.5144 36.0439C59.5144 35.7669 59.435 35.547 59.2761 35.3841C59.1214 35.2171 58.9218 35.1337 58.6775 35.1337C58.4331 35.1337 58.2315 35.2171 58.0727 35.3841C57.9139 35.547 57.8345 35.7669 57.8345 36.0439C57.8345 36.3208 57.9139 36.5427 58.0727 36.7097C58.2315 36.8726 58.4331 36.9541 58.6775 36.9541Z" fill="#D85575"/>
<path d="M61.1166 33.1544H62.0695V37.6871H61.1166V33.1544Z" fill="#D85575"/>
<path d="M62.954 34.4006H63.9069V37.6871H62.954V34.4006ZM63.4305 33.9424C63.2553 33.9424 63.1128 33.8915 63.0028 33.7897C62.8929 33.6879 62.8379 33.5617 62.8379 33.411C62.8379 33.2603 62.8929 33.134 63.0028 33.0322C63.1128 32.9304 63.2553 32.8795 63.4305 32.8795C63.6056 32.8795 63.7481 32.9284 63.8581 33.0261C63.968 33.1239 64.023 33.246 64.023 33.3927C64.023 33.5515 63.968 33.6838 63.8581 33.7897C63.7481 33.8915 63.6056 33.9424 63.4305 33.9424Z" fill="#D85575"/>
<path d="M66.9111 37.5283C66.8174 37.5975 66.7014 37.6505 66.5629 37.6871C66.4285 37.7197 66.286 37.736 66.1353 37.736C65.7443 37.736 65.4409 37.6362 65.2251 37.4367C65.0133 37.2371 64.9074 36.9439 64.9074 36.557V35.207H64.4004V34.4739H64.9074V33.6737H65.8604V34.4739H66.679V35.207H65.8604V36.5448C65.8604 36.6832 65.895 36.7912 65.9643 36.8685C66.0376 36.9419 66.1394 36.9785 66.2697 36.9785C66.4204 36.9785 66.5487 36.9378 66.6545 36.8563L66.9111 37.5283Z" fill="#D85575"/>
<path d="M67.4461 34.4006H68.399V37.6871H67.4461V34.4006ZM67.9225 33.9424C67.7474 33.9424 67.6049 33.8915 67.4949 33.7897C67.385 33.6879 67.33 33.5617 67.33 33.411C67.33 33.2603 67.385 33.134 67.4949 33.0322C67.6049 32.9304 67.7474 32.8795 67.9225 32.8795C68.0977 32.8795 68.2402 32.9284 68.3502 33.0261C68.4601 33.1239 68.5151 33.246 68.5151 33.3927C68.5151 33.5515 68.4601 33.6838 68.3502 33.7897C68.2402 33.8915 68.0977 33.9424 67.9225 33.9424Z" fill="#D85575"/>
<path d="M70.6946 36.3982L70.2364 36.8502V37.6871H69.2835V33.1544H70.2364V35.7201L71.6292 34.4006H72.7655L71.3971 35.7934L72.8876 37.6871H71.7331L70.6946 36.3982Z" fill="#D85575"/>
<path d="M78.0029 35.4819H78.907V37.2167C78.6749 37.3919 78.4061 37.5263 78.1006 37.6199C77.7952 37.7136 77.4877 37.7604 77.1782 37.7604C76.7343 37.7604 76.3352 37.6668 75.9809 37.4794C75.6266 37.288 75.3476 37.0253 75.144 36.6914C74.9444 36.3534 74.8447 35.9726 74.8447 35.5491C74.8447 35.1255 74.9444 34.7468 75.144 34.4128C75.3476 34.0748 75.6286 33.8121 75.987 33.6248C76.3454 33.4334 76.7486 33.3377 77.1965 33.3377C77.5712 33.3377 77.9113 33.4008 78.2167 33.527C78.5221 33.6533 78.7787 33.8366 78.9864 34.0768L78.3511 34.6633C78.0457 34.3416 77.6771 34.1807 77.2454 34.1807C76.9725 34.1807 76.7302 34.2377 76.5185 34.3517C76.3067 34.4658 76.1417 34.6266 76.0236 34.8343C75.9055 35.042 75.8465 35.2803 75.8465 35.5491C75.8465 35.8138 75.9055 36.05 76.0236 36.2577C76.1417 36.4654 76.3046 36.6283 76.5123 36.7464C76.7241 36.8604 76.9644 36.9174 77.2332 36.9174C77.5183 36.9174 77.7748 36.8563 78.0029 36.7342V35.4819Z" fill="#D85575"/>
<path d="M81.0847 34.3517C81.5937 34.3517 81.9847 34.4739 82.2576 34.7183C82.5304 34.9585 82.6668 35.323 82.6668 35.8117V37.6871H81.775V37.2778C81.5958 37.5833 81.2618 37.736 80.7731 37.736C80.5206 37.736 80.3007 37.6932 80.1134 37.6077C79.9301 37.5222 79.7896 37.4041 79.6919 37.2534C79.5941 37.1027 79.5453 36.9317 79.5453 36.7403C79.5453 36.4348 79.6593 36.1945 79.8873 36.0194C80.1195 35.8443 80.4758 35.7568 80.9564 35.7568H81.7139C81.7139 35.5491 81.6508 35.3902 81.5245 35.2803C81.3983 35.1662 81.2089 35.1092 80.9564 35.1092C80.7813 35.1092 80.6082 35.1377 80.4371 35.1947C80.2702 35.2477 80.1276 35.321 80.0095 35.4147L79.6674 34.7488C79.8466 34.6226 80.0604 34.5248 80.3089 34.4556C80.5614 34.3863 80.82 34.3517 81.0847 34.3517ZM81.0114 37.0946C81.1743 37.0946 81.3188 37.0579 81.4451 36.9846C81.5713 36.9072 81.6609 36.7952 81.7139 36.6486V36.3126H81.0602C80.6693 36.3126 80.4738 36.4409 80.4738 36.6975C80.4738 36.8197 80.5206 36.9174 80.6143 36.9907C80.712 37.06 80.8444 37.0946 81.0114 37.0946Z" fill="#D85575"/>
<path d="M86.7318 34.4006L85.2473 37.8887C85.0966 38.2675 84.9093 38.5342 84.6853 38.689C84.4654 38.8437 84.1987 38.9211 83.8851 38.9211C83.714 38.9211 83.545 38.8946 83.378 38.8417C83.2111 38.7887 83.0746 38.7154 82.9688 38.6218L83.3169 37.9437C83.3903 38.0089 83.4737 38.0598 83.5674 38.0964C83.6651 38.1331 83.7609 38.1514 83.8545 38.1514C83.9848 38.1514 84.0907 38.1188 84.1722 38.0537C84.2536 37.9926 84.3269 37.8887 84.3921 37.7421L84.4043 37.7116L82.981 34.4006H83.9645L84.8869 36.6303L85.8154 34.4006H86.7318Z" fill="#D85575"/>
<path d="M88.3388 34.3517C88.8479 34.3517 89.2389 34.4739 89.5117 34.7183C89.7846 34.9585 89.921 35.323 89.921 35.8117V37.6871H89.0291V37.2778C88.8499 37.5833 88.516 37.736 88.0273 37.736C87.7748 37.736 87.5549 37.6932 87.3675 37.6077C87.1843 37.5222 87.0438 37.4041 86.946 37.2534C86.8483 37.1027 86.7994 36.9317 86.7994 36.7403C86.7994 36.4348 86.9135 36.1945 87.1415 36.0194C87.3737 35.8443 87.73 35.7568 88.2106 35.7568H88.968C88.968 35.5491 88.9049 35.3902 88.7787 35.2803C88.6524 35.1662 88.463 35.1092 88.2106 35.1092C88.0354 35.1092 87.8624 35.1377 87.6913 35.1947C87.5243 35.2477 87.3818 35.321 87.2637 35.4147L86.9216 34.7488C87.1008 34.6226 87.3146 34.5248 87.563 34.4556C87.8155 34.3863 88.0741 34.3517 88.3388 34.3517ZM88.2655 37.0946C88.4284 37.0946 88.573 37.0579 88.6993 36.9846C88.8255 36.9072 88.9151 36.7952 88.968 36.6486V36.3126H88.3144C87.9234 36.3126 87.728 36.4409 87.728 36.6975C87.728 36.8197 87.7748 36.9174 87.8685 36.9907C87.9662 37.06 88.0986 37.0946 88.2655 37.0946Z" fill="#D85575"/>
<path d="M95.7206 35.4635C95.965 35.5409 96.1564 35.6712 96.2949 35.8545C96.4333 36.0337 96.5026 36.2556 96.5026 36.5203C96.5026 36.895 96.3559 37.1842 96.0627 37.3878C95.7736 37.5873 95.35 37.6871 94.7921 37.6871H92.5807V33.411H94.6699C95.1912 33.411 95.5903 33.5108 95.8672 33.7103C96.1482 33.9099 96.2887 34.1807 96.2887 34.5228C96.2887 34.7305 96.2378 34.9158 96.136 35.0787C96.0383 35.2416 95.8998 35.3699 95.7206 35.4635ZM93.5642 34.1563V35.1642H94.5477C94.7921 35.1642 94.9774 35.1214 95.1036 35.0359C95.2299 34.9504 95.293 34.8241 95.293 34.6572C95.293 34.4902 95.2299 34.366 95.1036 34.2845C94.9774 34.199 94.7921 34.1563 94.5477 34.1563H93.5642ZM94.7188 36.9419C94.9794 36.9419 95.1749 36.8991 95.3052 36.8136C95.4396 36.728 95.5068 36.5957 95.5068 36.4165C95.5068 36.0622 95.2441 35.885 94.7188 35.885H93.5642V36.9419H94.7188Z" fill="#D85575"/>
<path d="M98.5102 34.3517C99.0193 34.3517 99.4102 34.4739 99.6831 34.7183C99.9559 34.9585 100.092 35.323 100.092 35.8117V37.6871H99.2005V37.2778C99.0213 37.5833 98.6874 37.736 98.1986 37.736C97.9462 37.736 97.7262 37.6932 97.5389 37.6077C97.3556 37.5222 97.2151 37.4041 97.1174 37.2534C97.0197 37.1027 96.9708 36.9317 96.9708 36.7403C96.9708 36.4348 97.0848 36.1945 97.3129 36.0194C97.545 35.8443 97.9014 35.7568 98.3819 35.7568H99.1394C99.1394 35.5491 99.0763 35.3902 98.95 35.2803C98.8238 35.1662 98.6344 35.1092 98.3819 35.1092C98.2068 35.1092 98.0337 35.1377 97.8627 35.1947C97.6957 35.2477 97.5532 35.321 97.4351 35.4147L97.093 34.7488C97.2721 34.6226 97.486 34.5248 97.7344 34.4556C97.9869 34.3863 98.2455 34.3517 98.5102 34.3517ZM98.4369 37.0946C98.5998 37.0946 98.7444 37.0579 98.8706 36.9846C98.9969 36.9072 99.0865 36.7952 99.1394 36.6486V36.3126H98.4858C98.0948 36.3126 97.8993 36.4409 97.8993 36.6975C97.8993 36.8197 97.9462 36.9174 98.0398 36.9907C98.1376 37.06 98.2699 37.0946 98.4369 37.0946Z" fill="#D85575"/>
<path d="M101.865 34.8343C101.979 34.6755 102.132 34.5554 102.323 34.4739C102.519 34.3925 102.743 34.3517 102.995 34.3517V35.2314C102.889 35.2233 102.818 35.2192 102.781 35.2192C102.509 35.2192 102.295 35.2966 102.14 35.4513C101.985 35.602 101.908 35.8301 101.908 36.1355V37.6871H100.955V34.4006H101.865V34.8343Z" fill="#D85575"/>
<path d="M106.897 34.4006V37.6871H105.993V37.2962C105.866 37.4387 105.716 37.5487 105.54 37.626C105.365 37.6993 105.176 37.736 104.972 37.736C104.541 37.736 104.199 37.6118 103.946 37.3634C103.694 37.1149 103.567 36.7464 103.567 36.2577V34.4006H104.52V36.1172C104.52 36.6466 104.742 36.9113 105.186 36.9113C105.414 36.9113 105.598 36.838 105.736 36.6914C105.874 36.5407 105.944 36.3188 105.944 36.0255V34.4006H106.897Z" fill="#D85575"/>
<path d="M42.5759 16.4984C43.7122 16.4984 44.6957 16.6878 45.5265 17.0666C46.3695 17.4453 47.017 17.9829 47.4691 18.6793C47.9211 19.3757 48.1472 20.2004 48.1472 21.1533C48.1472 22.0941 47.9211 22.9188 47.4691 23.6274C47.017 24.3238 46.3695 24.8614 45.5265 25.2401C44.6957 25.6066 43.7122 25.7899 42.5759 25.7899H39.9919V29.3269H37.0231V16.4984H42.5759ZM42.411 23.3708C43.3029 23.3708 43.981 23.1814 44.4452 22.8027C44.9095 22.4117 45.1416 21.8619 45.1416 21.1533C45.1416 20.4325 44.9095 19.8827 44.4452 19.504C43.981 19.113 43.3029 18.9175 42.411 18.9175H39.9919V23.3708H42.411Z" fill="#393885"/>
<path d="M54.7388 29.4735C53.7003 29.4735 52.7656 29.2597 51.9348 28.8321C51.1163 28.3922 50.4748 27.7875 50.0106 27.0178C49.5463 26.2481 49.3142 25.3745 49.3142 24.3971C49.3142 23.4197 49.5463 22.5461 50.0106 21.7764C50.4748 21.0067 51.1163 20.4081 51.9348 19.9804C52.7656 19.5406 53.7003 19.3207 54.7388 19.3207C55.7773 19.3207 56.7058 19.5406 57.5244 19.9804C58.3429 20.4081 58.9844 21.0067 59.4486 21.7764C59.9129 22.5461 60.145 23.4197 60.145 24.3971C60.145 25.3745 59.9129 26.2481 59.4486 27.0178C58.9844 27.7875 58.3429 28.3922 57.5244 28.8321C56.7058 29.2597 55.7773 29.4735 54.7388 29.4735ZM54.7388 27.1277C55.4718 27.1277 56.0705 26.8834 56.5347 26.3947C57.0112 25.8937 57.2495 25.2279 57.2495 24.3971C57.2495 23.5663 57.0112 22.9065 56.5347 22.4178C56.0705 21.9169 55.4718 21.6665 54.7388 21.6665C54.0057 21.6665 53.4009 21.9169 52.9245 22.4178C52.448 22.9065 52.2097 23.5663 52.2097 24.3971C52.2097 25.2279 52.448 25.8937 52.9245 26.3947C53.4009 26.8834 54.0057 27.1277 54.7388 27.1277Z" fill="#393885"/>
<path d="M62.056 15.7287H64.9149V29.3269H62.056V15.7287Z" fill="#393885"/>
<path d="M71.545 19.3207C73.0722 19.3207 74.2451 19.6872 75.0637 20.4203C75.8822 21.1411 76.2915 22.2346 76.2915 23.7007V29.3269H73.6159V28.099C73.0783 29.0153 72.0765 29.4735 70.6104 29.4735C69.8529 29.4735 69.1931 29.3452 68.6311 29.0886C68.0813 28.8321 67.6598 28.4778 67.3666 28.0257C67.0734 27.5737 66.9268 27.0605 66.9268 26.4863C66.9268 25.57 67.2689 24.8491 67.953 24.3238C68.6494 23.7984 69.7185 23.5358 71.1602 23.5358H73.4326C73.4326 22.9127 73.2432 22.4362 72.8645 22.1063C72.4858 21.7642 71.9176 21.5932 71.1602 21.5932C70.6348 21.5932 70.1156 21.6787 69.6024 21.8497C69.1015 22.0086 68.6739 22.2285 68.3196 22.5095L67.2933 20.5119C67.8309 20.1332 68.4723 19.8399 69.2176 19.6322C69.9751 19.4245 70.7509 19.3207 71.545 19.3207ZM71.3251 27.5492C71.8138 27.5492 72.2475 27.4393 72.6263 27.2193C73.005 26.9872 73.2738 26.6512 73.4326 26.2114V25.2035H71.4717C70.2988 25.2035 69.7124 25.5883 69.7124 26.358C69.7124 26.7245 69.8529 27.0178 70.1339 27.2377C70.4271 27.4454 70.8242 27.5492 71.3251 27.5492Z" fill="#393885"/>
<path d="M84.6334 16.4984C85.7697 16.4984 86.7532 16.6878 87.584 17.0666C88.427 17.4453 89.0745 17.9829 89.5266 18.6793C89.9786 19.3757 90.2046 20.2004 90.2046 21.1533C90.2046 22.0941 89.9786 22.9188 89.5266 23.6274C89.0745 24.3238 88.427 24.8614 87.584 25.2401C86.7532 25.6066 85.7697 25.7899 84.6334 25.7899H82.0494V29.3269H79.0806V16.4984H84.6334ZM84.4685 23.3708C85.3604 23.3708 86.0385 23.1814 86.5027 22.8027C86.967 22.4117 87.1991 21.8619 87.1991 21.1533C87.1991 20.4325 86.967 19.8827 86.5027 19.504C86.0385 19.113 85.3604 18.9175 84.4685 18.9175H82.0494V23.3708H84.4685Z" fill="#393885"/>
<path d="M96.7963 29.4735C95.7578 29.4735 94.8231 29.2597 93.9923 28.8321C93.1737 28.3922 92.5323 27.7875 92.0681 27.0178C91.6038 26.2481 91.3717 25.3745 91.3717 24.3971C91.3717 23.4197 91.6038 22.5461 92.0681 21.7764C92.5323 21.0067 93.1737 20.4081 93.9923 19.9804C94.8231 19.5406 95.7578 19.3207 96.7963 19.3207C97.8347 19.3207 98.7633 19.5406 99.5819 19.9804C100.4 20.4081 101.042 21.0067 101.506 21.7764C101.97 22.5461 102.203 23.4197 102.203 24.3971C102.203 25.3745 101.97 26.2481 101.506 27.0178C101.042 27.7875 100.4 28.3922 99.5819 28.8321C98.7633 29.2597 97.8347 29.4735 96.7963 29.4735ZM96.7963 27.1277C97.5293 27.1277 98.128 26.8834 98.5922 26.3947C99.0687 25.8937 99.307 25.2279 99.307 24.3971C99.307 23.5663 99.0687 22.9065 98.5922 22.4178C98.128 21.9169 97.5293 21.6665 96.7963 21.6665C96.0632 21.6665 95.4584 21.9169 94.9819 22.4178C94.5055 22.9065 94.2672 23.5663 94.2672 24.3971C94.2672 25.2279 94.5055 25.8937 94.9819 26.3947C95.4584 26.8834 96.0632 27.1277 96.7963 27.1277Z" fill="#393885"/>
<path d="M104.113 15.7287H106.972V29.3269H104.113V15.7287Z" fill="#393885"/>
<path d="M109.626 19.4673H112.485V29.3269H109.626V19.4673ZM111.055 18.0928C110.53 18.0928 110.102 17.9401 109.772 17.6347C109.442 17.3292 109.277 16.9505 109.277 16.4984C109.277 16.0464 109.442 15.6677 109.772 15.3622C110.102 15.0568 110.53 14.9041 111.055 14.9041C111.58 14.9041 112.008 15.0507 112.338 15.3439C112.668 15.6371 112.833 16.0036 112.833 16.4435C112.833 16.9199 112.668 17.317 112.338 17.6347C112.008 17.9401 111.58 18.0928 111.055 18.0928Z" fill="#393885"/>
</svg>
