<svg width="634" height="535" viewBox="0 0 634 535" fill="none" xmlns="http://www.w3.org/2000/svg">
<path d="M574.649 127.283C586.424 173.983 593.807 224.22 576.396 279.083C557.163 339.683 530.98 418.15 472.464 449.268C409.697 482.647 367.974 408.374 304.124 423.875C242.186 438.911 188.869 529.428 129.131 532.621C69.7041 535.797 29.4311 489.895 10.7771 439.552C-7.56196 390.052 4.93803 324.505 29.2511 263.007C51.0891 207.771 102.151 165.136 139.314 114.428" stroke="#999999" stroke-width="4"/>
<path d="M401.706 15.972L85.8942 67.574C81.7066 68.2589 77.9626 70.5791 75.4857 74.0242C73.0088 77.4694 72.0017 81.7574 72.6862 85.945L135.899 472.815C136.583 477.003 138.903 480.747 142.348 483.224C145.793 485.702 150.081 486.709 154.269 486.025L470.081 434.425C474.269 433.741 478.013 431.421 480.491 427.976C482.968 424.531 483.976 420.243 483.292 416.055L420.077 29.183C419.738 27.1093 418.994 25.1226 417.888 23.3364C416.781 21.5501 415.334 19.9994 413.628 18.7726C411.922 17.5458 409.991 16.6671 407.945 16.1866C405.9 15.7061 403.78 15.6331 401.706 15.972Z" fill="#141414"/>
<g clip-path="url(#clip0_2456_138325)">
<path fill-rule="evenodd" clip-rule="evenodd" d="M179.135 267.033L179.101 266.431C176.082 266.441 172.394 260.517 171.466 257.608C169.047 250.03 171.52 242.197 175.401 236.104C175.449 236.028 175.52 235.915 175.569 235.838L176.661 234.285C180.283 230.275 184.527 227.564 185.3 226.41C179.714 221.611 167.23 224.833 159.19 226.491C159.157 236.171 158.682 246.348 158.354 255.99C157.907 269.089 157.945 274.889 173.639 272.252C173.874 271.46 172.8 267.87 179.136 267.033L179.135 267.033Z" fill="#6167B0"/>
<path fill-rule="evenodd" clip-rule="evenodd" d="M186.052 226.48C187.404 228.009 188.785 228.842 190.178 230.647C194.474 236.208 194.534 243.027 192.825 249.252C191.183 255.237 185.181 263.789 179.101 266.431L179.135 267.033C183.612 271.642 195.902 268.469 199.914 267.81C206.509 266.728 204.915 267.432 205.127 260.73C205.413 251.692 206.222 237.097 206.049 229.388C205.954 225.12 203.755 222.336 201.261 221.073C197.975 219.41 194.663 220.344 190.661 221.204C190.147 222.328 190.236 223.061 190.209 224.304L186.052 226.48L186.052 226.48Z" fill="#FB3B6F"/>
<path fill-rule="evenodd" clip-rule="evenodd" d="M179.101 266.431C185.181 263.789 191.182 255.236 192.825 249.252C194.534 243.026 194.474 236.208 190.178 230.646C188.784 228.842 187.404 228.009 186.052 226.48L185.3 226.411C184.527 227.564 180.283 230.275 176.661 234.286L175.57 235.839C175.521 235.915 175.45 236.029 175.401 236.105C171.519 242.198 169.047 250.031 171.466 257.609C172.394 260.518 176.082 266.441 179.101 266.432L179.101 266.431Z" fill="#393988"/>
<path d="M226.328 250.913C227.012 250.797 227.624 250.811 228.162 250.954C228.709 251.096 229.153 251.354 229.496 251.727C229.839 252.101 230.059 252.574 230.156 253.148C230.252 253.714 230.2 254.234 230 254.706C229.798 255.171 229.463 255.561 228.994 255.875C228.532 256.18 227.958 256.39 227.274 256.506L225.719 256.769L226.079 258.898L224.291 259.201L222.986 251.478L226.328 250.913ZM226.929 255.067C227.466 254.976 227.854 254.793 228.095 254.518C228.335 254.235 228.419 253.88 228.347 253.454C228.273 253.02 228.078 252.712 227.76 252.532C227.44 252.344 227.012 252.295 226.475 252.386L225.019 252.632L225.472 255.313L226.929 255.067Z" fill="#D85575"/>
<path d="M234.971 257.486C234.346 257.591 233.762 257.558 233.218 257.385C232.68 257.203 232.233 256.905 231.875 256.489C231.517 256.072 231.288 255.57 231.189 254.982C231.089 254.393 231.14 253.844 231.341 253.333C231.542 252.823 231.868 252.397 232.317 252.056C232.772 251.707 233.313 251.479 233.938 251.374C234.563 251.268 235.144 251.306 235.682 251.487C236.218 251.661 236.665 251.956 237.023 252.373C237.381 252.789 237.61 253.291 237.709 253.879C237.809 254.468 237.758 255.017 237.557 255.528C237.355 256.039 237.031 256.468 236.583 256.816C236.134 257.157 235.596 257.38 234.971 257.486ZM234.732 256.073C235.174 255.999 235.509 255.791 235.739 255.449C235.975 255.099 236.05 254.674 235.966 254.174C235.881 253.674 235.671 253.301 235.334 253.055C235.004 252.801 234.618 252.711 234.176 252.786C233.735 252.86 233.397 253.073 233.161 253.423C232.924 253.765 232.847 254.187 232.932 254.687C233.017 255.187 233.228 255.564 233.566 255.817C233.902 256.063 234.291 256.148 234.732 256.073Z" fill="#D85575"/>
<path d="M237.977 248.466L239.698 248.175L241.082 256.362L239.361 256.653L237.977 248.466Z" fill="#D85575"/>
<path d="M244.055 249.663C244.975 249.508 245.718 249.609 246.285 249.967C246.852 250.317 247.209 250.934 247.358 251.817L247.931 255.204L246.32 255.476L246.195 254.737C245.965 255.343 245.409 255.721 244.526 255.87C244.07 255.947 243.66 255.937 243.295 255.84C242.938 255.741 242.648 255.571 242.426 255.329C242.203 255.086 242.063 254.792 242.004 254.447C241.911 253.895 242.044 253.426 242.402 253.04C242.768 252.653 243.385 252.386 244.253 252.24L245.621 252.008C245.557 251.633 245.395 251.366 245.133 251.206C244.87 251.038 244.511 250.993 244.055 251.07C243.739 251.124 243.435 251.228 243.143 251.383C242.858 251.53 242.623 251.706 242.438 251.911L241.617 250.813C241.902 250.53 242.258 250.288 242.686 250.087C243.121 249.885 243.577 249.744 244.055 249.663ZM244.76 254.639C245.055 254.589 245.304 254.479 245.51 254.308C245.714 254.13 245.842 253.9 245.893 253.619L245.79 253.012L244.61 253.212C243.904 253.331 243.59 253.623 243.668 254.086C243.706 254.307 243.82 254.469 244.012 254.573C244.209 254.668 244.459 254.69 244.76 254.639Z" fill="#D85575"/>
<path d="M254.772 246.103C255.456 245.988 256.067 246.002 256.606 246.145C257.152 246.287 257.596 246.545 257.939 246.918C258.282 247.292 258.502 247.765 258.599 248.339C258.695 248.905 258.643 249.424 258.443 249.897C258.242 250.362 257.907 250.752 257.438 251.066C256.975 251.371 256.401 251.581 255.717 251.697L254.162 251.96L254.522 254.089L252.735 254.391L251.429 246.669L254.772 246.103ZM255.372 250.257C255.909 250.167 256.298 249.984 256.539 249.708C256.778 249.426 256.862 249.071 256.79 248.645C256.717 248.211 256.521 247.903 256.203 247.723C255.884 247.534 255.456 247.486 254.919 247.577L253.462 247.823L253.916 250.504L255.372 250.257Z" fill="#D85575"/>
<path d="M263.414 252.677C262.789 252.782 262.205 252.749 261.661 252.576C261.124 252.394 260.676 252.096 260.318 251.679C259.96 251.263 259.732 250.761 259.632 250.173C259.533 249.584 259.583 249.035 259.785 248.524C259.986 248.014 260.311 247.588 260.76 247.247C261.216 246.898 261.756 246.67 262.381 246.565C263.006 246.459 263.588 246.497 264.125 246.678C264.661 246.852 265.109 247.147 265.466 247.563C265.824 247.98 266.053 248.482 266.152 249.07C266.252 249.659 266.201 250.208 266 250.719C265.799 251.229 265.474 251.659 265.026 252.007C264.577 252.348 264.04 252.571 263.414 252.677ZM263.176 251.264C263.617 251.19 263.953 250.982 264.182 250.64C264.418 250.29 264.494 249.865 264.409 249.365C264.325 248.865 264.114 248.492 263.777 248.246C263.447 247.992 263.061 247.902 262.62 247.977C262.178 248.051 261.84 248.264 261.604 248.614C261.367 248.956 261.291 249.378 261.375 249.878C261.46 250.378 261.671 250.755 262.009 251.008C262.345 251.253 262.734 251.339 263.176 251.264Z" fill="#D85575"/>
<path d="M266.42 243.657L268.142 243.366L269.526 251.553L267.805 251.844L266.42 243.657Z" fill="#D85575"/>
<path d="M270.119 245.347L271.84 245.056L272.844 250.991L271.123 251.282L270.119 245.347ZM270.84 244.374C270.524 244.427 270.251 244.379 270.021 244.229C269.791 244.078 269.654 243.867 269.608 243.595C269.562 243.323 269.622 243.078 269.79 242.861C269.957 242.643 270.199 242.508 270.515 242.454C270.832 242.401 271.104 242.446 271.332 242.589C271.561 242.731 271.697 242.935 271.742 243.2C271.791 243.487 271.732 243.743 271.566 243.968C271.398 244.185 271.156 244.321 270.84 244.374Z" fill="#D85575"/>
<path d="M278.221 249.787C278.073 249.941 277.88 250.072 277.641 250.18C277.408 250.28 277.156 250.353 276.883 250.399C276.177 250.519 275.599 250.431 275.148 250.137C274.705 249.841 274.424 249.344 274.306 248.645L273.894 246.207L272.978 246.362L272.754 245.038L273.67 244.883L273.425 243.438L275.146 243.147L275.391 244.592L276.869 244.342L277.093 245.666L275.615 245.916L276.023 248.332C276.065 248.582 276.161 248.766 276.31 248.885C276.464 248.995 276.659 249.03 276.895 248.99C277.167 248.944 277.386 248.831 277.553 248.652L278.221 249.787Z" fill="#D85575"/>
<path d="M278.232 243.975L279.953 243.684L280.957 249.62L279.236 249.911L278.232 243.975ZM278.953 243.002C278.637 243.056 278.364 243.007 278.134 242.857C277.904 242.707 277.766 242.496 277.72 242.223C277.674 241.951 277.735 241.706 277.903 241.489C278.07 241.272 278.312 241.136 278.628 241.083C278.944 241.029 279.217 241.074 279.445 241.217C279.674 241.36 279.81 241.564 279.855 241.828C279.904 242.115 279.845 242.371 279.678 242.596C279.511 242.813 279.269 242.949 278.953 243.002Z" fill="#D85575"/>
<path d="M284.709 246.591L284.02 247.547L284.275 249.059L282.554 249.35L281.17 241.164L282.891 240.873L283.675 245.506L285.787 242.698L287.839 242.351L285.793 245.284L289.063 248.249L286.978 248.602L284.709 246.591Z" fill="#D85575"/>
<path d="M297.628 242.704L299.261 242.428L299.791 245.562C299.425 245.949 298.981 246.274 298.458 246.536C297.934 246.798 297.393 246.977 296.835 247.071C296.033 247.207 295.283 247.16 294.586 246.93C293.888 246.692 293.304 246.303 292.834 245.762C292.371 245.212 292.074 244.555 291.945 243.79C291.815 243.025 291.88 242.311 292.138 241.647C292.403 240.974 292.83 240.414 293.42 239.966C294.009 239.511 294.708 239.215 295.517 239.078C296.194 238.964 296.827 238.974 297.417 239.109C298.008 239.243 298.527 239.496 298.975 239.867L298.007 241.12C297.357 240.632 296.642 240.454 295.863 240.586C295.37 240.669 294.95 240.846 294.602 241.117C294.254 241.387 294.006 241.728 293.856 242.139C293.706 242.551 293.672 242.999 293.754 243.484C293.835 243.962 294.014 244.371 294.29 244.71C294.567 245.049 294.911 245.293 295.322 245.443C295.74 245.585 296.191 245.614 296.676 245.532C297.191 245.445 297.636 245.256 298.011 244.966L297.628 242.704Z" fill="#D85575"/>
<path d="M302.849 239.722C303.768 239.567 304.512 239.668 305.079 240.026C305.645 240.377 306.003 240.993 306.152 241.876L306.725 245.263L305.114 245.535L304.989 244.796C304.759 245.403 304.202 245.78 303.32 245.93C302.864 246.007 302.453 245.997 302.089 245.899C301.732 245.801 301.442 245.63 301.219 245.388C300.997 245.146 300.856 244.852 300.798 244.506C300.705 243.955 300.837 243.486 301.196 243.1C301.561 242.713 302.178 242.446 303.046 242.299L304.414 242.068C304.351 241.693 304.188 241.425 303.927 241.265C303.664 241.098 303.304 241.052 302.848 241.13C302.532 241.183 302.228 241.287 301.937 241.443C301.651 241.589 301.416 241.765 301.232 241.97L300.41 240.872C300.696 240.59 301.052 240.348 301.479 240.147C301.914 239.945 302.371 239.803 302.849 239.722ZM303.554 244.698C303.848 244.649 304.098 244.538 304.304 244.367C304.508 244.189 304.636 243.959 304.687 243.678L304.584 243.072L303.403 243.271C302.697 243.391 302.383 243.682 302.462 244.145C302.499 244.366 302.614 244.528 302.805 244.632C303.003 244.727 303.252 244.749 303.554 244.698Z" fill="#D85575"/>
<path d="M313.062 238.086L311.447 244.839C311.29 245.569 311.033 246.108 310.676 246.456C310.326 246.803 309.868 247.024 309.302 247.12C308.993 247.172 308.679 247.176 308.362 247.131C308.044 247.086 307.775 246.996 307.555 246.859L307.977 245.528C308.129 245.623 308.296 245.69 308.476 245.727C308.664 245.764 308.842 245.767 309.011 245.739C309.247 245.699 309.428 245.608 309.555 245.465C309.684 245.33 309.784 245.12 309.857 244.835L309.87 244.777L306.288 239.232L308.065 238.931L310.411 242.676L311.408 238.366L313.062 238.086Z" fill="#D85575"/>
<path d="M315.95 237.507C316.869 237.352 317.613 237.453 318.18 237.811C318.746 238.162 319.104 238.778 319.253 239.661L319.826 243.048L318.215 243.32L318.09 242.581C317.86 243.187 317.303 243.565 316.421 243.714C315.965 243.792 315.554 243.781 315.19 243.684C314.833 243.586 314.543 243.415 314.321 243.173C314.098 242.931 313.958 242.637 313.899 242.291C313.806 241.739 313.938 241.271 314.297 240.885C314.663 240.498 315.279 240.231 316.147 240.084L317.515 239.853C317.452 239.478 317.289 239.21 317.028 239.05C316.765 238.883 316.406 238.837 315.95 238.914C315.633 238.968 315.329 239.072 315.038 239.227C314.753 239.374 314.517 239.55 314.333 239.755L313.512 238.657C313.797 238.374 314.153 238.133 314.581 237.932C315.015 237.73 315.472 237.588 315.95 237.507ZM316.655 242.483C316.949 242.434 317.199 242.323 317.405 242.152C317.609 241.974 317.737 241.744 317.788 241.463L317.685 240.857L316.505 241.056C315.799 241.176 315.485 241.467 315.563 241.93C315.6 242.151 315.715 242.313 315.906 242.417C316.104 242.512 316.354 242.534 316.655 242.483Z" fill="#D85575"/>
<path d="M329.621 237.261C330.086 237.326 330.471 237.503 330.778 237.792C331.082 238.073 331.275 238.453 331.356 238.931C331.47 239.608 331.294 240.175 330.826 240.632C330.365 241.081 329.631 241.39 328.623 241.561L324.629 242.236L323.324 234.513L327.097 233.875C328.038 233.716 328.789 233.774 329.35 234.05C329.919 234.325 330.255 234.771 330.36 235.389C330.423 235.764 330.388 236.114 330.254 236.439C330.127 236.763 329.916 237.037 329.621 237.261ZM325.327 235.559L325.635 237.379L327.411 237.079C327.853 237.004 328.174 236.87 328.376 236.677C328.578 236.484 328.654 236.237 328.603 235.935C328.552 235.634 328.4 235.429 328.147 235.32C327.893 235.204 327.545 235.184 327.104 235.258L325.327 235.559ZM328.263 240.237C328.734 240.157 329.074 240.02 329.283 239.826C329.5 239.631 329.581 239.371 329.526 239.047C329.418 238.408 328.889 238.168 327.94 238.328L325.855 238.681L326.178 240.589L328.263 240.237Z" fill="#D85575"/>
<path d="M334.32 234.401C335.239 234.246 335.982 234.347 336.55 234.705C337.116 235.056 337.474 235.672 337.623 236.555L338.195 239.942L336.585 240.214L336.46 239.475C336.229 240.082 335.673 240.459 334.79 240.609C334.334 240.686 333.924 240.676 333.56 240.578C333.203 240.48 332.913 240.309 332.69 240.067C332.468 239.825 332.327 239.531 332.269 239.185C332.175 238.634 332.308 238.165 332.666 237.779C333.032 237.392 333.649 237.125 334.517 236.978L335.885 236.747C335.822 236.372 335.659 236.104 335.397 235.944C335.135 235.777 334.775 235.732 334.319 235.809C334.003 235.862 333.699 235.966 333.408 236.122C333.122 236.268 332.887 236.444 332.702 236.649L331.881 235.551C332.166 235.269 332.523 235.027 332.95 234.826C333.385 234.624 333.842 234.482 334.32 234.401ZM335.025 239.377C335.319 239.328 335.569 239.217 335.774 239.046C335.979 238.868 336.106 238.638 336.157 238.358L336.055 237.751L334.874 237.95C334.168 238.07 333.854 238.361 333.933 238.824C333.97 239.045 334.084 239.207 334.276 239.311C334.474 239.406 334.723 239.428 335.025 239.377Z" fill="#D85575"/>
<path d="M340.526 234.249C340.683 233.927 340.922 233.663 341.243 233.458C341.571 233.251 341.964 233.109 342.42 233.032L342.688 234.621C342.494 234.638 342.364 234.653 342.298 234.664C341.805 234.747 341.443 234.952 341.211 235.279C340.977 235.598 340.907 236.034 341 236.585L341.474 239.388L339.753 239.679L338.75 233.743L340.393 233.465L340.526 234.249Z" fill="#D85575"/>
<path d="M349.481 231.929L350.484 237.864L348.851 238.14L348.732 237.434C348.547 237.73 348.309 237.975 348.016 238.168C347.722 238.354 347.392 238.478 347.024 238.54C346.244 238.672 345.588 238.552 345.057 238.181C344.525 237.809 344.184 237.182 344.035 236.299L343.468 232.945L345.189 232.654L345.713 235.755C345.875 236.711 346.356 237.121 347.158 236.985C347.57 236.916 347.879 236.728 348.084 236.42C348.288 236.106 348.345 235.684 348.256 235.154L347.759 232.22L349.481 231.929Z" fill="#D85575"/>
<path d="M227.85 219.238C229.902 218.891 231.736 218.933 233.352 219.363C234.99 219.79 236.324 220.563 237.353 221.682C238.382 222.802 239.042 224.223 239.333 225.944C239.62 227.643 239.464 229.201 238.864 230.619C238.26 232.015 237.255 233.183 235.848 234.125C234.459 235.04 232.739 235.672 230.687 236.018L226.02 236.808L227.1 243.195L221.739 244.102L217.821 220.934L227.85 219.238ZM229.651 231.7C231.261 231.428 232.428 230.879 233.151 230.053C233.87 229.205 234.121 228.141 233.905 226.861C233.685 225.559 233.098 224.637 232.144 224.095C231.186 223.531 229.901 223.385 228.291 223.657L223.922 224.396L225.282 232.439L229.651 231.7Z" fill="white"/>
<path d="M253.778 238.957C251.903 239.274 250.149 239.174 248.518 238.655C246.906 238.111 245.563 237.214 244.489 235.966C243.416 234.718 242.73 233.211 242.431 231.446C242.133 229.68 242.285 228.032 242.889 226.5C243.492 224.968 244.468 223.691 245.815 222.669C247.182 221.621 248.802 220.938 250.678 220.621C252.553 220.304 254.298 220.418 255.91 220.962C257.519 221.484 258.86 222.37 259.934 223.618C261.007 224.866 261.693 226.373 261.992 228.138C262.29 229.903 262.138 231.552 261.534 233.084C260.931 234.616 259.957 235.904 258.613 236.948C257.265 237.97 255.654 238.64 253.778 238.957ZM253.062 234.721C254.386 234.497 255.392 233.873 256.082 232.848C256.789 231.798 257.016 230.523 256.762 229.022C256.509 227.522 255.877 226.403 254.867 225.666C253.876 224.903 252.718 224.634 251.394 224.858C250.07 225.081 249.055 225.718 248.347 226.769C247.636 227.797 247.407 229.061 247.661 230.561C247.914 232.062 248.548 233.192 249.561 233.951C250.571 234.688 251.738 234.944 253.062 234.721Z" fill="white"/>
<path d="M262.796 211.9L267.959 211.027L272.112 235.585L266.948 236.458L262.796 211.9Z" fill="white"/>
<path d="M281.03 215.489C283.788 215.023 286.019 215.327 287.721 216.401C289.419 217.452 290.492 219.302 290.94 221.95L292.658 232.111L287.826 232.928L287.451 230.711C286.76 232.53 285.09 233.663 282.443 234.111C281.074 234.342 279.844 234.312 278.75 234.02C277.679 233.725 276.81 233.213 276.142 232.486C275.475 231.76 275.053 230.878 274.878 229.841C274.598 228.186 274.996 226.779 276.071 225.622C277.168 224.46 279.019 223.659 281.622 223.219L285.726 222.525C285.536 221.4 285.049 220.597 284.264 220.117C283.475 219.615 282.397 219.48 281.029 219.711C280.08 219.871 279.169 220.184 278.294 220.65C277.438 221.09 276.733 221.617 276.179 222.233L273.715 218.939C274.571 218.091 275.639 217.365 276.922 216.763C278.227 216.156 279.596 215.732 281.03 215.489ZM283.146 230.417C284.028 230.268 284.778 229.937 285.395 229.424C286.008 228.889 286.391 228.2 286.543 227.358L286.236 225.537L282.694 226.136C280.576 226.494 279.634 227.368 279.869 228.758C279.981 229.42 280.325 229.907 280.899 230.218C281.492 230.504 282.241 230.57 283.146 230.417Z" fill="white"/>
<path d="M303.806 206.396C305.859 206.049 307.693 206.09 309.309 206.521C310.947 206.947 312.28 207.72 313.309 208.84C314.339 209.96 314.999 211.38 315.29 213.101C315.577 214.8 315.42 216.359 314.82 217.776C314.217 219.172 313.211 220.341 311.804 221.282C310.416 222.198 308.696 222.829 306.644 223.176L301.977 223.965L303.057 230.353L297.695 231.259L293.778 208.091L303.806 206.396ZM305.607 218.858C307.218 218.585 308.385 218.036 309.107 217.21C309.827 216.362 310.078 215.299 309.862 214.019C309.641 212.717 309.054 211.795 308.1 211.253C307.142 210.688 305.858 210.542 304.247 210.815L299.878 211.553L301.238 219.596L305.607 218.858Z" fill="white"/>
<path d="M329.735 226.115C327.859 226.432 326.106 226.331 324.475 225.812C322.862 225.268 321.519 224.372 320.446 223.123C319.372 221.875 318.686 220.368 318.388 218.603C318.089 216.838 318.242 215.189 318.845 213.657C319.449 212.126 320.424 210.849 321.772 209.826C323.138 208.778 324.759 208.096 326.634 207.779C328.51 207.461 330.254 207.575 331.867 208.12C333.476 208.642 334.817 209.527 335.89 210.775C336.964 212.024 337.65 213.531 337.948 215.296C338.247 217.061 338.094 218.71 337.491 220.241C336.887 221.773 335.914 223.061 334.57 224.106C333.222 225.128 331.61 225.798 329.735 226.115ZM329.018 221.878C330.342 221.654 331.349 221.03 332.038 220.006C332.746 218.956 332.973 217.68 332.719 216.18C332.465 214.68 331.834 213.561 330.824 212.824C329.832 212.061 328.675 211.791 327.351 212.015C326.027 212.239 325.011 212.876 324.304 213.926C323.592 214.954 323.363 216.218 323.617 217.719C323.871 219.219 324.504 220.349 325.518 221.108C326.528 221.845 327.694 222.102 329.018 221.878Z" fill="white"/>
<path d="M338.753 199.057L343.916 198.184L348.068 222.743L342.905 223.616L338.753 199.057Z" fill="white"/>
<path d="M349.849 204.126L355.013 203.253L358.023 221.059L352.86 221.932L349.849 204.126ZM352.011 201.207C351.063 201.367 350.244 201.222 349.555 200.771C348.866 200.32 348.452 199.687 348.314 198.87C348.176 198.054 348.358 197.32 348.861 196.667C349.363 196.015 350.089 195.608 351.038 195.448C351.986 195.288 352.803 195.422 353.489 195.851C354.174 196.279 354.584 196.891 354.718 197.685C354.864 198.546 354.687 199.313 354.188 199.988C353.686 200.64 352.96 201.047 352.011 201.207Z" fill="white"/>
</g>
<path d="M223.231 408.9L175.86 416.64C175.532 416.688 175.217 416.802 174.933 416.973C174.649 417.144 174.402 417.37 174.206 417.638C174.011 417.906 173.87 418.209 173.793 418.532C173.716 418.854 173.704 419.189 173.757 419.516C173.811 419.844 173.929 420.157 174.105 420.438C174.28 420.719 174.51 420.963 174.781 421.154C175.052 421.346 175.358 421.481 175.681 421.553C176.005 421.626 176.34 421.633 176.666 421.574L224.038 413.834C224.365 413.785 224.68 413.671 224.963 413.5C225.246 413.328 225.492 413.102 225.687 412.834C225.882 412.567 226.022 412.263 226.099 411.941C226.176 411.619 226.188 411.285 226.134 410.958C226.081 410.631 225.963 410.318 225.788 410.038C225.612 409.757 225.383 409.514 225.113 409.322C224.843 409.131 224.537 408.995 224.214 408.922C223.891 408.85 223.557 408.842 223.231 408.9Z" fill="#E9E9E9"/>
<path d="M221.219 421.383L181.742 427.833C181.418 427.886 181.108 428.002 180.828 428.175C180.549 428.348 180.307 428.574 180.115 428.841C179.924 429.108 179.786 429.409 179.711 429.729C179.636 430.049 179.625 430.38 179.678 430.704C179.731 431.028 179.847 431.338 180.02 431.618C180.193 431.897 180.419 432.139 180.686 432.331C180.953 432.522 181.254 432.66 181.574 432.735C181.894 432.81 182.225 432.821 182.549 432.768L222.025 426.318C222.679 426.211 223.265 425.849 223.652 425.31C224.039 424.772 224.196 424.102 224.089 423.447C223.983 422.793 223.62 422.208 223.082 421.821C222.543 421.434 221.873 421.276 221.219 421.383Z" fill="#B2BEC3"/>
<path d="M199.792 386.38C199.664 385.599 199.308 384.874 198.768 384.296C198.228 383.717 197.528 383.312 196.758 383.131C195.988 382.951 195.181 383.003 194.44 383.28C193.699 383.558 193.058 384.049 192.596 384.692C192.134 385.334 191.874 386.099 191.847 386.89C191.82 387.681 192.028 388.462 192.445 389.134C192.862 389.807 193.469 390.34 194.19 390.667C194.91 390.995 195.711 391.101 196.492 390.973C197.539 390.801 198.474 390.221 199.093 389.36C199.712 388.498 199.963 387.427 199.792 386.38Z" fill="#FFE393"/>
<path d="M328.833 391.642L281.461 399.382C280.807 399.489 280.221 399.851 279.834 400.39C279.447 400.928 279.29 401.598 279.396 402.253C279.503 402.907 279.866 403.492 280.404 403.879C280.942 404.266 281.613 404.424 282.267 404.317L329.639 396.576C329.967 396.528 330.282 396.414 330.566 396.243C330.85 396.072 331.097 395.846 331.292 395.578C331.488 395.31 331.629 395.006 331.706 394.684C331.783 394.362 331.795 394.027 331.742 393.7C331.688 393.372 331.57 393.059 331.394 392.778C331.219 392.497 330.989 392.253 330.718 392.062C330.447 391.87 330.141 391.735 329.818 391.663C329.494 391.59 329.159 391.583 328.833 391.642Z" fill="#E9E9E9"/>
<path d="M326.817 404.129L287.34 410.579C287.016 410.632 286.705 410.748 286.426 410.921C286.147 411.094 285.905 411.32 285.713 411.587C285.326 412.125 285.169 412.795 285.275 413.449C285.382 414.104 285.745 414.689 286.283 415.076C286.821 415.463 287.492 415.621 288.146 415.514L327.623 409.064C328.277 408.957 328.863 408.595 329.25 408.056C329.637 407.518 329.794 406.848 329.687 406.194C329.581 405.539 329.218 404.954 328.68 404.567C328.141 404.18 327.471 404.022 326.817 404.129Z" fill="#B2BEC3"/>
<path d="M304.405 369.287C304.277 368.506 303.921 367.781 303.381 367.202C302.841 366.624 302.142 366.219 301.372 366.038C300.601 365.857 299.795 365.908 299.054 366.186C298.313 366.464 297.671 366.955 297.209 367.597C296.747 368.24 296.486 369.005 296.46 369.796C296.433 370.587 296.641 371.368 297.058 372.04C297.475 372.712 298.082 373.246 298.803 373.573C299.523 373.901 300.324 374.007 301.105 373.879C302.151 373.707 303.087 373.127 303.705 372.266C304.324 371.405 304.576 370.333 304.405 369.287Z" fill="#009490"/>
<path d="M432.458 374.71L385.086 382.45C384.762 382.503 384.451 382.619 384.172 382.792C383.893 382.965 383.651 383.191 383.459 383.458C383.268 383.724 383.13 384.026 383.055 384.346C382.98 384.665 382.969 384.996 383.021 385.32C383.074 385.645 383.191 385.955 383.364 386.234C383.536 386.513 383.763 386.756 384.029 386.947C384.296 387.139 384.597 387.276 384.917 387.351C385.237 387.426 385.568 387.438 385.892 387.385L433.264 379.645C433.918 379.538 434.504 379.176 434.891 378.637C435.278 378.099 435.435 377.429 435.328 376.774C435.222 376.12 434.859 375.535 434.321 375.148C433.782 374.761 433.112 374.603 432.458 374.71Z" fill="#E9E9E9"/>
<path d="M430.445 387.2L390.969 393.651C390.323 393.767 389.748 394.132 389.369 394.668C388.99 395.204 388.837 395.867 388.943 396.515C389.049 397.163 389.405 397.743 389.935 398.13C390.465 398.517 391.126 398.681 391.775 398.585L431.252 392.135C431.576 392.082 431.886 391.966 432.166 391.793C432.445 391.62 432.687 391.394 432.879 391.127C433.07 390.86 433.208 390.559 433.283 390.239C433.358 389.919 433.369 389.588 433.316 389.264C433.263 388.94 433.147 388.63 432.974 388.35C432.801 388.071 432.575 387.829 432.308 387.637C432.041 387.446 431.74 387.308 431.42 387.233C431.1 387.158 430.769 387.147 430.445 387.2Z" fill="#B2BEC3"/>
<path d="M409.019 352.2C408.891 351.419 408.535 350.694 407.995 350.115C407.455 349.537 406.756 349.132 405.986 348.951C405.215 348.77 404.409 348.821 403.668 349.099C402.927 349.377 402.285 349.868 401.823 350.51C401.361 351.153 401.1 351.918 401.074 352.709C401.047 353.5 401.255 354.281 401.672 354.953C402.089 355.626 402.696 356.159 403.416 356.486C404.137 356.814 404.938 356.92 405.719 356.792C406.765 356.62 407.701 356.04 408.319 355.179C408.938 354.318 409.19 353.247 409.019 352.2Z" fill="#98FFE0"/>
<path d="M241.235 72.591L114.91 93.232C114.196 93.3477 113.513 93.6029 112.898 93.983C112.283 94.3631 111.749 94.8607 111.327 95.4474C110.904 96.034 110.602 96.6981 110.436 97.4017C110.271 98.1054 110.246 98.8347 110.362 99.5481C110.479 100.261 110.735 100.945 111.116 101.559C111.497 102.174 111.995 102.707 112.582 103.128C113.169 103.55 113.834 103.852 114.537 104.017C115.241 104.181 115.971 104.205 116.684 104.088L243.009 83.448C244.447 83.2112 245.732 82.4132 246.583 81.2293C247.433 80.0454 247.778 78.5725 247.543 77.1341C247.308 75.6957 246.512 74.4094 245.329 73.5577C244.146 72.7061 242.674 72.3587 241.235 72.592V72.591Z" fill="#E9E9E9"/>
<path d="M409.225 55.782C408.444 50.9997 406.262 46.5566 402.955 43.0144C399.648 39.4723 395.366 36.9901 390.648 35.882C385.931 34.7738 380.991 35.0894 376.453 36.7888C371.916 38.4882 367.983 41.4951 365.154 45.4292C362.325 49.3633 360.727 54.048 360.56 58.8908C360.394 63.7336 361.667 68.517 364.219 72.6362C366.771 76.7553 370.487 80.0252 374.898 82.0323C379.308 84.0394 384.215 84.6935 388.997 83.912C395.41 82.8641 401.143 79.3117 404.937 74.0363C408.73 68.7609 410.273 62.1947 409.225 55.782Z" fill="#FDEFFC" stroke="white" stroke-width="2"/>
<path d="M552.061 156.668L428.786 122.21C424.699 121.067 420.326 121.595 416.629 123.677C412.931 125.758 410.212 129.223 409.069 133.31L361.689 302.81C360.546 306.897 361.074 311.27 363.156 314.967C365.237 318.665 368.702 321.384 372.789 322.527L496.066 356.989C500.152 358.131 504.525 357.604 508.223 355.522C511.92 353.44 514.639 349.975 515.782 345.889L563.163 176.389C563.729 174.365 563.891 172.25 563.64 170.163C563.388 168.077 562.728 166.06 561.697 164.229C560.666 162.397 559.285 160.787 557.631 159.49C555.978 158.192 554.085 157.234 552.061 156.668Z" fill="#141414"/>
<path d="M414.463 276.033L417.306 276.833L421.958 260.191L419.115 259.391L415.471 260.391L414.612 263.465L418.265 262.43L414.463 276.033ZM423.015 278.423L426.02 279.263L435.644 266.852L436.381 264.217L426.13 261.352L425.393 263.987L432.662 266.019L423.015 278.423ZM433.515 284.537C433.86 284.742 434.252 284.855 434.653 284.865C435.054 284.874 435.451 284.78 435.805 284.591C436.506 284.093 436.991 283.346 437.161 282.503L438.024 279.418L435.169 278.618L434.339 281.588L435.818 282.001C435.771 282.466 435.566 282.901 435.237 283.234C435.07 283.376 434.865 283.466 434.647 283.491C434.429 283.517 434.208 283.478 434.013 283.378L433.515 284.537ZM446.727 285.389C447.717 285.679 448.766 285.706 449.77 285.467C450.747 285.235 451.646 284.753 452.379 284.067C453.136 283.366 453.678 282.464 453.942 281.467C454.174 280.662 454.236 279.818 454.124 278.988C454.017 278.168 453.708 277.388 453.227 276.716C452.745 276.044 452.104 275.502 451.362 275.138L456.126 272.583L456.863 269.948L446.658 267.095L445.925 269.718L452.813 271.644L446.855 274.414L447.512 276.965C448.023 276.837 448.558 276.841 449.067 276.976C449.453 277.069 449.815 277.243 450.129 277.485C450.443 277.728 450.703 278.034 450.891 278.383C451.078 278.731 451.193 279.113 451.231 279.507C451.269 279.9 451.228 280.297 451.111 280.675C451.013 281.055 450.839 281.411 450.6 281.723C450.362 282.035 450.063 282.295 449.722 282.489C449.38 282.683 449.004 282.807 448.614 282.852C448.224 282.898 447.829 282.865 447.452 282.755C446.846 282.596 446.306 282.248 445.91 281.763C445.49 281.245 445.266 280.596 445.276 279.929L442.376 279.904C442.385 280.747 442.583 281.577 442.955 282.334C443.331 283.073 443.857 283.726 444.501 284.249C445.157 284.78 445.916 285.169 446.731 285.389H446.727ZM462.856 289.561L465.676 290.349L466.445 287.599L468.005 288.035L468.732 285.435L467.176 285L468.387 280.666L465.567 279.877L464.356 284.211L460.156 283.039L468.64 273.239L465.461 272.35L456.978 282.15L456.251 284.75L463.624 286.811L462.856 289.561ZM476.128 293.645C477.133 293.937 478.197 293.959 479.213 293.71C480.203 293.463 481.115 292.973 481.867 292.283C482.636 291.584 483.187 290.679 483.456 289.675C483.747 288.703 483.777 287.671 483.544 286.684C483.33 285.751 482.862 284.896 482.191 284.213C481.486 283.489 480.596 282.973 479.618 282.721C478.399 282.367 477.091 282.481 475.952 283.042L476.424 281.355C476.576 280.801 476.868 280.294 477.271 279.885C477.671 279.471 478.172 279.168 478.725 279.008C479.323 278.835 479.958 278.839 480.553 279.02C481.009 279.148 481.43 279.376 481.786 279.689C482.146 279.997 482.435 280.379 482.632 280.81L485.189 279.419C484.798 278.667 484.238 278.017 483.552 277.519C482.869 277.016 482.098 276.643 481.28 276.419C480.178 276.084 479.007 276.045 477.885 276.305C476.843 276.554 475.895 277.098 475.154 277.871C474.343 278.735 473.764 279.791 473.474 280.94L472.063 286C471.736 287.087 471.698 288.24 471.951 289.346C472.183 290.379 472.696 291.328 473.434 292.087C474.172 292.846 475.106 293.386 476.132 293.646L476.128 293.645ZM476.875 290.975C476.357 290.839 475.887 290.562 475.517 290.175C475.158 289.792 474.898 289.325 474.762 288.818C474.625 288.304 474.63 287.763 474.776 287.252C474.916 286.731 475.195 286.257 475.583 285.882C475.966 285.518 476.433 285.254 476.943 285.116C477.465 284.972 478.016 284.975 478.536 285.125C479.055 285.264 479.524 285.547 479.89 285.94C480.26 286.319 480.524 286.788 480.656 287.301C480.793 287.823 480.786 288.372 480.636 288.89C480.497 289.409 480.215 289.878 479.821 290.244C479.441 290.608 478.973 290.868 478.464 290.999C477.943 291.134 477.395 291.126 476.879 290.975H476.875Z" fill="white"/>
<path d="M466.016 302.9L419.786 289.982C419.151 289.813 418.474 289.901 417.903 290.228C417.332 290.554 416.913 291.092 416.736 291.725C416.559 292.358 416.639 293.036 416.957 293.611C417.276 294.186 417.809 294.612 418.44 294.797L464.668 307.719C465.307 307.897 465.99 307.815 466.568 307.49C467.146 307.164 467.57 306.623 467.749 305.984C467.927 305.345 467.845 304.662 467.52 304.084C467.194 303.506 466.653 303.082 466.014 302.903L466.016 302.9Z" fill="#E9E9E9"/>
<path d="M532.343 167.77L439.886 141.926C435.799 140.783 431.426 141.311 427.729 143.393C424.031 145.474 421.312 148.939 420.169 153.026L402.94 214.664C401.798 218.75 402.325 223.123 404.407 226.821C406.489 230.518 409.954 233.237 414.04 234.38L506.496 260.224C510.582 261.366 514.955 260.839 518.653 258.757C522.35 256.675 525.069 253.21 526.212 249.124L543.441 187.487C544.584 183.401 544.056 179.028 541.975 175.33C539.894 171.633 536.429 168.913 532.343 167.77Z" fill="#1F1F1F"/>
<path d="M463.874 234.416C470.467 236.259 477.459 236.105 483.965 233.974C490.471 231.844 496.2 227.831 500.425 222.445C504.651 217.059 507.185 210.541 507.706 203.714C508.228 196.888 506.713 190.061 503.354 184.095C499.995 178.13 494.943 173.294 488.835 170.2C482.728 167.106 475.841 165.893 469.044 166.713C462.247 167.533 455.846 170.351 450.651 174.809C445.455 179.267 441.698 185.166 439.855 191.759C437.383 200.601 438.526 210.062 443.03 218.062C447.534 226.062 455.032 231.944 463.874 234.416Z" stroke="#2D3436" stroke-width="4"/>
<path d="M482.513 167.74C489.561 169.71 495.803 173.863 500.344 179.603C504.884 185.342 507.488 192.373 507.782 199.685C508.076 206.998 506.046 214.215 501.982 220.301C497.917 226.387 492.029 231.028 485.162 233.558" stroke="#FFC700" stroke-width="4" stroke-linecap="round"/>
<path d="M588.823 65L584.686 40.791L561.654 49.413L560.986 48.253L579.876 32.5L560.986 16.913L561.649 15.753L584.686 24.209L588.823 0H590.149L594.286 24.209L617.318 15.753L617.981 16.913L599.096 32.5L617.986 48.253L617.323 49.413L594.286 40.791L590.149 65H588.823Z" fill="#999999"/>
<path d="M299.986 486C300.777 486 301.55 485.765 302.208 485.326C302.866 484.886 303.379 484.262 303.681 483.531C303.984 482.8 304.063 481.996 303.909 481.22C303.755 480.444 303.374 479.731 302.814 479.172C302.255 478.612 301.542 478.231 300.766 478.077C299.99 477.923 299.186 478.002 298.455 478.304C297.724 478.607 297.1 479.12 296.66 479.778C296.221 480.435 295.986 481.209 295.986 482C295.986 483.061 296.407 484.078 297.158 484.828C297.908 485.579 298.925 486 299.986 486Z" fill="#999999"/>
<path d="M573.486 130C574.376 130 575.246 129.736 575.986 129.242C576.726 128.747 577.303 128.044 577.643 127.222C577.984 126.4 578.073 125.495 577.899 124.622C577.726 123.749 577.297 122.947 576.668 122.318C576.039 121.689 575.237 121.26 574.364 121.086C573.491 120.913 572.586 121.002 571.764 121.343C570.942 121.683 570.239 122.26 569.744 123C569.25 123.74 568.986 124.61 568.986 125.5C568.986 126.693 569.46 127.838 570.304 128.682C571.148 129.526 572.292 130 573.486 130Z" fill="#999999"/>
<path d="M621.625 290.074L498.352 255.609C494.265 254.466 489.892 254.994 486.195 257.076C482.497 259.157 479.778 262.622 478.635 266.709L431.246 436.21C430.103 440.297 430.631 444.67 432.713 448.367C434.794 452.065 438.259 454.784 442.346 455.927L565.619 490.392C569.706 491.535 574.079 491.007 577.776 488.925C581.474 486.844 584.193 483.379 585.336 479.292L632.725 309.792C633.291 307.768 633.453 305.653 633.201 303.567C632.949 301.481 632.289 299.465 631.259 297.634C630.228 295.803 628.847 294.193 627.194 292.896C625.541 291.599 623.649 290.64 621.625 290.074Z" fill="#141414"/>
<path d="M484.459 409.554L487.302 410.348L491.954 393.707L489.111 392.907L485.468 393.907L484.608 396.981L488.262 395.946L484.459 409.554ZM496.841 413.354C497.831 413.644 498.88 413.671 499.884 413.432C500.861 413.2 501.76 412.718 502.494 412.032C503.25 411.331 503.792 410.429 504.056 409.432C504.289 408.627 504.351 407.783 504.238 406.953C504.131 406.133 503.823 405.353 503.341 404.681C502.86 404.009 502.219 403.467 501.477 403.103L506.241 400.548L506.978 397.913L496.773 395.06L496.04 397.683L502.927 399.609L496.97 402.379L497.627 404.93C498.137 404.801 498.672 404.805 499.181 404.941C499.567 405.034 499.929 405.208 500.243 405.45C500.558 405.693 500.817 405.999 501.006 406.348C501.192 406.697 501.307 407.079 501.345 407.472C501.383 407.865 501.342 408.262 501.225 408.64C501.127 409.02 500.953 409.376 500.714 409.688C500.476 410 500.177 410.26 499.836 410.454C499.494 410.648 499.118 410.772 498.728 410.817C498.338 410.863 497.943 410.83 497.566 410.72C496.96 410.561 496.42 410.213 496.024 409.728C495.605 409.209 495.38 408.56 495.39 407.893L492.49 407.869C492.499 408.712 492.697 409.542 493.069 410.298C493.444 411.038 493.971 411.69 494.615 412.213C495.269 412.744 496.028 413.132 496.841 413.352V413.354ZM505.004 418.477C505.349 418.682 505.741 418.795 506.142 418.805C506.543 418.815 506.94 418.721 507.294 418.532C507.995 418.034 508.48 417.287 508.65 416.444L509.513 413.358L506.658 412.558L505.828 415.528L507.307 415.942C507.259 416.407 507.054 416.842 506.726 417.175C506.559 417.317 506.354 417.407 506.136 417.432C505.918 417.458 505.697 417.418 505.502 417.318L505.004 418.477ZM518.215 419.33C519.206 419.62 520.255 419.647 521.259 419.408C522.236 419.176 523.135 418.693 523.868 418.008C524.625 417.307 525.167 416.405 525.431 415.408C525.664 414.603 525.726 413.759 525.613 412.929C525.506 412.109 525.198 411.329 524.717 410.657C524.235 409.985 523.594 409.443 522.852 409.079L527.616 406.524L528.352 403.889L518.152 401.036L517.418 403.659L524.306 405.585L518.348 408.355L519.006 410.906C519.516 410.777 520.051 410.781 520.56 410.917C520.946 411.01 521.308 411.184 521.622 411.426C521.937 411.669 522.196 411.975 522.385 412.324C522.571 412.673 522.686 413.055 522.724 413.448C522.762 413.841 522.721 414.238 522.604 414.616C522.506 414.996 522.332 415.352 522.093 415.664C521.855 415.976 521.556 416.236 521.215 416.43C520.873 416.624 520.497 416.748 520.107 416.793C519.717 416.839 519.322 416.806 518.945 416.696C518.339 416.537 517.799 416.189 517.403 415.704C516.984 415.185 516.76 414.536 516.769 413.869L513.869 413.845C513.878 414.688 514.076 415.518 514.448 416.274C514.823 417.014 515.35 417.666 515.994 418.189C516.647 418.719 517.403 419.107 518.215 419.328V419.33ZM534.345 423.503L537.165 424.291L537.934 421.541L539.494 421.977L540.221 419.377L538.661 418.94L539.872 414.607L537.052 413.818L535.841 418.152L531.641 416.979L540.125 407.179L536.947 406.29L528.463 416.09L527.736 418.69L535.109 420.751L534.345 423.503ZM547.617 427.587C548.621 427.879 549.685 427.902 550.701 427.652C551.691 427.406 552.603 426.916 553.355 426.226C554.124 425.527 554.675 424.622 554.944 423.618C555.235 422.646 555.266 421.615 555.033 420.627C554.819 419.694 554.351 418.839 553.68 418.156C552.976 417.432 552.085 416.916 551.107 416.664C549.888 416.309 548.58 416.423 547.441 416.984L547.913 415.297C548.066 414.743 548.357 414.237 548.76 413.827C549.16 413.414 549.662 413.111 550.214 412.95C550.812 412.777 551.447 412.782 552.042 412.963C552.498 413.091 552.919 413.319 553.275 413.631C553.635 413.939 553.923 414.322 554.121 414.752L556.678 413.362C556.288 412.61 555.728 411.959 555.042 411.462C554.358 410.959 553.588 410.586 552.769 410.362C551.665 410.026 550.493 409.987 549.369 410.248C548.327 410.497 547.379 411.041 546.639 411.815C545.827 412.678 545.248 413.735 544.958 414.884L543.543 419.945C543.217 421.032 543.178 422.185 543.43 423.291C543.662 424.324 544.175 425.273 544.914 426.032C545.652 426.791 546.586 427.33 547.612 427.591L547.617 427.587ZM548.363 424.918C547.846 424.781 547.376 424.504 547.005 424.118C546.646 423.734 546.387 423.268 546.251 422.761C546.114 422.247 546.119 421.706 546.265 421.195C546.405 420.674 546.684 420.201 547.072 419.826C547.454 419.461 547.922 419.198 548.432 419.06C548.953 418.915 549.504 418.918 550.024 419.069C550.543 419.207 551.013 419.49 551.379 419.884C551.749 420.263 552.013 420.732 552.145 421.244C552.282 421.766 552.275 422.315 552.124 422.833C551.986 423.352 551.704 423.822 551.31 424.188C550.929 424.551 550.462 424.811 549.952 424.942C549.43 425.077 548.881 425.068 548.363 424.916V424.918Z" fill="white"/>
<path d="M537.019 436.709L490.792 423.784C490.153 423.606 489.47 423.688 488.892 424.013C488.314 424.339 487.889 424.88 487.711 425.519C487.533 426.158 487.615 426.841 487.94 427.419C488.266 427.997 488.807 428.422 489.446 428.6L535.673 441.524C535.991 441.617 536.324 441.646 536.652 441.61C536.981 441.573 537.3 441.472 537.589 441.311C537.879 441.151 538.133 440.934 538.339 440.675C538.544 440.415 538.695 440.117 538.784 439.798C538.874 439.479 538.898 439.146 538.858 438.818C538.817 438.489 538.711 438.172 538.547 437.885C538.383 437.597 538.163 437.345 537.901 437.144C537.639 436.942 537.339 436.794 537.019 436.709Z" fill="#E9E9E9"/>
<path d="M601.908 301.174L509.454 275.326C507.43 274.76 505.315 274.598 503.229 274.85C501.143 275.101 499.127 275.761 497.296 276.792C495.465 277.823 493.855 279.204 492.558 280.857C491.261 282.51 490.302 284.402 489.736 286.426L472.504 348.062C471.361 352.149 471.889 356.522 473.971 360.219C476.052 363.917 479.517 366.636 483.604 367.779L576.059 393.628C580.146 394.771 584.519 394.243 588.216 392.161C591.914 390.08 594.633 386.615 595.776 382.528L613.008 320.891C614.151 316.804 613.623 312.431 611.541 308.734C609.46 305.036 605.994 302.317 601.908 301.174Z" fill="#1F1F1F"/>
<path d="M514.714 330.791L510.861 329.714C510.35 329.571 509.804 329.638 509.342 329.898C508.88 330.158 508.54 330.591 508.397 331.102L502.473 352.289C502.402 352.542 502.382 352.806 502.413 353.067C502.445 353.328 502.527 353.58 502.656 353.809C502.785 354.038 502.958 354.239 503.165 354.401C503.371 354.564 503.608 354.683 503.861 354.754L507.713 355.831C507.966 355.902 508.23 355.922 508.491 355.891C508.752 355.859 509.004 355.777 509.233 355.648C509.462 355.519 509.663 355.346 509.825 355.139C509.987 354.933 510.107 354.696 510.178 354.443L516.101 333.256C516.244 332.745 516.178 332.199 515.918 331.736C515.658 331.274 515.225 330.934 514.714 330.791Z" fill="#02A5A1"/>
<path d="M537.745 322.694L533.893 321.617C533.383 321.474 532.837 321.539 532.374 321.799C531.912 322.058 531.572 322.49 531.428 323L521.735 357.671C521.592 358.182 521.658 358.728 521.918 359.19C522.179 359.652 522.611 359.992 523.122 360.135L526.975 361.212C527.486 361.355 528.032 361.289 528.494 361.029C528.956 360.769 529.296 360.336 529.439 359.825L539.133 325.154C539.274 324.644 539.208 324.098 538.947 323.637C538.687 323.176 538.255 322.837 537.745 322.694Z" fill="#02A5A1"/>
<path d="M562.663 307.854L558.811 306.777C558.3 306.634 557.753 306.7 557.291 306.96C556.829 307.22 556.489 307.653 556.346 308.164L540.998 363.059C540.927 363.312 540.907 363.576 540.938 363.837C540.97 364.098 541.052 364.35 541.181 364.579C541.31 364.808 541.483 365.009 541.69 365.171C541.896 365.333 542.133 365.453 542.386 365.524L546.238 366.601C546.491 366.672 546.755 366.692 547.016 366.661C547.277 366.629 547.529 366.547 547.758 366.418C547.987 366.289 548.188 366.116 548.35 365.909C548.512 365.703 548.632 365.466 548.703 365.213L564.05 310.313C564.191 309.803 564.124 309.258 563.864 308.797C563.604 308.336 563.172 307.997 562.663 307.854Z" fill="#02A5A1"/>
<path d="M574.386 340.2L570.533 339.123C570.022 338.98 569.476 339.047 569.014 339.307C568.552 339.567 568.212 340 568.069 340.511L560.26 368.44C560.189 368.693 560.169 368.957 560.2 369.218C560.232 369.479 560.314 369.731 560.443 369.96C560.572 370.189 560.745 370.39 560.952 370.552C561.158 370.715 561.395 370.834 561.648 370.905L565.5 371.982C565.753 372.053 566.017 372.073 566.278 372.042C566.539 372.01 566.791 371.928 567.02 371.799C567.249 371.67 567.45 371.497 567.612 371.29C567.774 371.084 567.894 370.847 567.965 370.594L575.773 342.665C575.916 342.154 575.85 341.608 575.59 341.145C575.33 340.683 574.897 340.343 574.386 340.2Z" fill="#02A5A1"/>
<defs>
<clipPath id="clip0_2456_138325">
<rect width="212.471" height="47.89" fill="white" transform="translate(152 227.421) rotate(-9.5966)"/>
</clipPath>
</defs>
</svg>
