<svg width="638" height="535" viewBox="0 0 638 535" fill="none" xmlns="http://www.w3.org/2000/svg">
<path d="M574.65 127.282C586.425 173.982 593.808 224.219 576.397 279.082C557.164 339.683 530.985 418.147 472.465 449.265C409.698 482.644 367.975 408.371 304.125 423.872C242.185 438.91 188.87 529.427 129.132 532.62C69.705 535.796 29.432 489.894 10.778 439.551C-7.56098 390.051 4.93902 324.504 29.252 263.006C51.09 207.77 102.152 165.135 139.316 114.427" stroke="white" stroke-width="4"/>
<path d="M401.734 16.058L85.8942 67.578C77.1725 69.0007 71.2555 77.2243 72.6782 85.946L135.79 472.85C137.213 481.572 145.436 487.489 154.158 486.066L469.998 434.546C478.72 433.123 484.637 424.9 483.214 416.178L420.102 29.274C418.679 20.5523 410.456 14.6353 401.734 16.058Z" fill="white"/>
<g clip-path="url(#clip0_2456_138286)">
<path fill-rule="evenodd" clip-rule="evenodd" d="M195.135 276.033L195.101 275.431C192.082 275.441 188.394 269.517 187.466 266.608C185.047 259.03 187.52 251.197 191.401 245.104C191.449 245.028 191.52 244.915 191.569 244.838L192.661 243.285C196.283 239.275 200.527 236.564 201.3 235.41C195.714 230.611 183.23 233.833 175.19 235.491C175.157 245.171 174.682 255.348 174.354 264.99C173.907 278.089 173.945 283.889 189.639 281.252C189.874 280.46 188.8 276.87 195.136 276.033L195.135 276.033Z" fill="#6167B0"/>
<path fill-rule="evenodd" clip-rule="evenodd" d="M202.052 235.48C203.404 237.009 204.785 237.842 206.178 239.647C210.474 245.208 210.534 252.027 208.825 258.252C207.183 264.237 201.181 272.789 195.101 275.431L195.135 276.033C199.612 280.642 211.902 277.469 215.914 276.81C222.509 275.728 220.915 276.432 221.127 269.73C221.413 260.692 222.222 246.097 222.049 238.388C221.954 234.12 219.755 231.336 217.261 230.073C213.975 228.41 210.663 229.344 206.661 230.204C206.147 231.328 206.236 232.061 206.209 233.304L202.052 235.48L202.052 235.48Z" fill="#FB3B6F"/>
<path fill-rule="evenodd" clip-rule="evenodd" d="M195.101 275.431C201.181 272.789 207.182 264.236 208.825 258.252C210.534 252.026 210.474 245.208 206.178 239.646C204.784 237.842 203.404 237.009 202.052 235.48L201.3 235.411C200.527 236.564 196.283 239.275 192.661 243.286L191.57 244.839C191.521 244.915 191.45 245.029 191.401 245.105C187.519 251.198 185.047 259.031 187.466 266.609C188.394 269.518 192.082 275.441 195.101 275.432L195.101 275.431Z" fill="#393988"/>
<path d="M242.328 259.913C243.012 259.797 243.624 259.811 244.162 259.954C244.709 260.096 245.153 260.354 245.496 260.727C245.839 261.101 246.059 261.574 246.156 262.148C246.252 262.714 246.2 263.234 246 263.706C245.798 264.171 245.463 264.561 244.994 264.875C244.532 265.18 243.958 265.39 243.274 265.506L241.719 265.769L242.079 267.898L240.291 268.201L238.986 260.478L242.328 259.913ZM242.929 264.067C243.466 263.976 243.854 263.793 244.095 263.518C244.335 263.235 244.419 262.88 244.347 262.454C244.273 262.02 244.078 261.712 243.76 261.532C243.44 261.344 243.012 261.295 242.475 261.386L241.019 261.632L241.472 264.313L242.929 264.067Z" fill="#D85575"/>
<path d="M250.971 266.486C250.346 266.591 249.762 266.558 249.218 266.385C248.68 266.203 248.233 265.905 247.875 265.489C247.517 265.072 247.288 264.57 247.189 263.982C247.089 263.393 247.14 262.844 247.341 262.333C247.542 261.823 247.868 261.397 248.317 261.056C248.772 260.707 249.313 260.479 249.938 260.374C250.563 260.268 251.144 260.306 251.682 260.487C252.218 260.661 252.665 260.956 253.023 261.373C253.381 261.789 253.61 262.291 253.709 262.879C253.809 263.468 253.758 264.017 253.557 264.528C253.355 265.039 253.031 265.468 252.583 265.816C252.134 266.157 251.596 266.38 250.971 266.486ZM250.732 265.073C251.174 264.999 251.509 264.791 251.739 264.449C251.975 264.099 252.05 263.674 251.966 263.174C251.881 262.674 251.671 262.301 251.334 262.055C251.004 261.801 250.618 261.711 250.176 261.786C249.735 261.86 249.397 262.073 249.161 262.423C248.924 262.765 248.847 263.187 248.932 263.687C249.017 264.187 249.228 264.564 249.566 264.817C249.902 265.063 250.291 265.148 250.732 265.073Z" fill="#D85575"/>
<path d="M253.977 257.466L255.698 257.175L257.082 265.362L255.361 265.653L253.977 257.466Z" fill="#D85575"/>
<path d="M260.055 258.663C260.975 258.508 261.718 258.609 262.285 258.967C262.852 259.317 263.209 259.934 263.358 260.817L263.931 264.204L262.32 264.476L262.195 263.737C261.965 264.343 261.409 264.721 260.526 264.87C260.07 264.947 259.66 264.937 259.295 264.84C258.938 264.741 258.648 264.571 258.426 264.329C258.203 264.086 258.063 263.792 258.004 263.447C257.911 262.895 258.044 262.426 258.402 262.04C258.768 261.653 259.385 261.386 260.253 261.24L261.621 261.008C261.557 260.633 261.395 260.366 261.133 260.206C260.87 260.038 260.511 259.993 260.055 260.07C259.739 260.124 259.435 260.228 259.143 260.383C258.858 260.53 258.623 260.706 258.438 260.911L257.617 259.813C257.902 259.53 258.258 259.288 258.686 259.087C259.121 258.885 259.577 258.744 260.055 258.663ZM260.76 263.639C261.055 263.589 261.304 263.479 261.51 263.308C261.714 263.13 261.842 262.9 261.893 262.619L261.79 262.012L260.61 262.212C259.904 262.331 259.59 262.623 259.668 263.086C259.706 263.307 259.82 263.469 260.012 263.573C260.209 263.668 260.459 263.69 260.76 263.639Z" fill="#D85575"/>
<path d="M270.772 255.103C271.456 254.988 272.067 255.002 272.606 255.145C273.152 255.287 273.596 255.545 273.939 255.918C274.282 256.292 274.502 256.765 274.599 257.339C274.695 257.905 274.643 258.424 274.443 258.897C274.242 259.362 273.907 259.752 273.438 260.066C272.975 260.371 272.401 260.581 271.717 260.697L270.162 260.96L270.522 263.089L268.735 263.391L267.429 255.669L270.772 255.103ZM271.372 259.257C271.909 259.167 272.298 258.984 272.539 258.708C272.778 258.426 272.862 258.071 272.79 257.645C272.717 257.211 272.521 256.903 272.203 256.723C271.884 256.534 271.456 256.486 270.919 256.577L269.462 256.823L269.916 259.504L271.372 259.257Z" fill="#D85575"/>
<path d="M279.414 261.677C278.789 261.782 278.205 261.749 277.661 261.576C277.124 261.394 276.676 261.096 276.318 260.679C275.96 260.263 275.732 259.761 275.632 259.173C275.533 258.584 275.583 258.035 275.785 257.524C275.986 257.014 276.311 256.588 276.76 256.247C277.216 255.898 277.756 255.67 278.381 255.565C279.006 255.459 279.588 255.497 280.125 255.678C280.661 255.852 281.109 256.147 281.466 256.563C281.824 256.98 282.053 257.482 282.152 258.07C282.252 258.659 282.201 259.208 282 259.719C281.799 260.229 281.474 260.659 281.026 261.007C280.577 261.348 280.04 261.571 279.414 261.677ZM279.176 260.264C279.617 260.19 279.953 259.982 280.182 259.64C280.418 259.29 280.494 258.865 280.409 258.365C280.325 257.865 280.114 257.492 279.777 257.246C279.447 256.992 279.061 256.902 278.62 256.977C278.178 257.051 277.84 257.264 277.604 257.614C277.367 257.956 277.291 258.378 277.375 258.878C277.46 259.378 277.671 259.755 278.009 260.008C278.345 260.253 278.734 260.339 279.176 260.264Z" fill="#D85575"/>
<path d="M282.42 252.657L284.142 252.366L285.526 260.553L283.805 260.844L282.42 252.657Z" fill="#D85575"/>
<path d="M286.119 254.347L287.84 254.056L288.844 259.991L287.123 260.282L286.119 254.347ZM286.84 253.374C286.524 253.427 286.251 253.379 286.021 253.229C285.791 253.078 285.654 252.867 285.608 252.595C285.562 252.323 285.622 252.078 285.79 251.861C285.957 251.643 286.199 251.508 286.515 251.454C286.832 251.401 287.104 251.446 287.332 251.589C287.561 251.731 287.697 251.935 287.742 252.2C287.791 252.487 287.732 252.743 287.566 252.968C287.398 253.185 287.156 253.321 286.84 253.374Z" fill="#D85575"/>
<path d="M294.221 258.787C294.073 258.941 293.88 259.072 293.641 259.18C293.408 259.28 293.156 259.353 292.883 259.399C292.177 259.519 291.599 259.431 291.148 259.137C290.705 258.841 290.424 258.344 290.306 257.645L289.894 255.207L288.978 255.362L288.754 254.038L289.67 253.883L289.425 252.438L291.146 252.147L291.391 253.592L292.869 253.342L293.093 254.666L291.615 254.916L292.023 257.332C292.065 257.582 292.161 257.766 292.31 257.885C292.464 257.995 292.659 258.03 292.895 257.99C293.167 257.944 293.386 257.831 293.553 257.652L294.221 258.787Z" fill="#D85575"/>
<path d="M294.232 252.975L295.953 252.684L296.957 258.62L295.236 258.911L294.232 252.975ZM294.953 252.002C294.637 252.056 294.364 252.007 294.134 251.857C293.904 251.707 293.766 251.496 293.72 251.223C293.674 250.951 293.735 250.706 293.903 250.489C294.07 250.272 294.312 250.136 294.628 250.083C294.944 250.029 295.217 250.074 295.445 250.217C295.674 250.36 295.81 250.564 295.855 250.828C295.904 251.115 295.845 251.371 295.678 251.596C295.511 251.813 295.269 251.949 294.953 252.002Z" fill="#D85575"/>
<path d="M300.709 255.591L300.02 256.547L300.275 258.059L298.554 258.35L297.17 250.164L298.891 249.873L299.675 254.506L301.787 251.698L303.839 251.351L301.793 254.284L305.063 257.249L302.978 257.602L300.709 255.591Z" fill="#D85575"/>
<path d="M313.628 251.704L315.261 251.428L315.791 254.562C315.425 254.949 314.981 255.274 314.458 255.536C313.934 255.798 313.393 255.977 312.835 256.071C312.033 256.207 311.283 256.16 310.586 255.93C309.888 255.692 309.304 255.303 308.834 254.762C308.371 254.212 308.074 253.555 307.945 252.79C307.815 252.025 307.88 251.311 308.138 250.647C308.403 249.974 308.83 249.414 309.42 248.966C310.009 248.511 310.708 248.215 311.517 248.078C312.194 247.964 312.827 247.974 313.417 248.109C314.008 248.243 314.527 248.496 314.975 248.867L314.007 250.12C313.357 249.632 312.642 249.454 311.863 249.586C311.37 249.669 310.95 249.846 310.602 250.117C310.254 250.387 310.006 250.728 309.856 251.139C309.706 251.551 309.672 251.999 309.754 252.484C309.835 252.962 310.014 253.371 310.29 253.71C310.567 254.049 310.911 254.293 311.322 254.443C311.74 254.585 312.191 254.614 312.676 254.532C313.191 254.445 313.636 254.256 314.011 253.966L313.628 251.704Z" fill="#D85575"/>
<path d="M318.849 248.722C319.768 248.567 320.512 248.668 321.079 249.026C321.645 249.377 322.003 249.993 322.152 250.876L322.725 254.263L321.114 254.535L320.989 253.796C320.759 254.403 320.202 254.78 319.32 254.93C318.864 255.007 318.453 254.997 318.089 254.899C317.732 254.801 317.442 254.63 317.219 254.388C316.997 254.146 316.856 253.852 316.798 253.506C316.705 252.955 316.837 252.486 317.196 252.1C317.561 251.713 318.178 251.446 319.046 251.299L320.414 251.068C320.351 250.693 320.188 250.425 319.927 250.265C319.664 250.098 319.304 250.052 318.848 250.13C318.532 250.183 318.228 250.287 317.937 250.443C317.651 250.589 317.416 250.765 317.232 250.97L316.41 249.872C316.696 249.59 317.052 249.348 317.479 249.147C317.914 248.945 318.371 248.803 318.849 248.722ZM319.554 253.698C319.848 253.649 320.098 253.538 320.304 253.367C320.508 253.189 320.636 252.959 320.687 252.678L320.584 252.072L319.403 252.271C318.697 252.391 318.383 252.682 318.462 253.145C318.499 253.366 318.614 253.528 318.805 253.632C319.003 253.727 319.252 253.749 319.554 253.698Z" fill="#D85575"/>
<path d="M329.062 247.086L327.447 253.839C327.29 254.569 327.033 255.108 326.676 255.456C326.326 255.803 325.868 256.024 325.302 256.12C324.993 256.172 324.679 256.176 324.362 256.131C324.044 256.086 323.775 255.996 323.555 255.859L323.977 254.528C324.129 254.623 324.296 254.69 324.476 254.727C324.664 254.764 324.842 254.767 325.011 254.739C325.247 254.699 325.428 254.608 325.555 254.465C325.684 254.33 325.784 254.12 325.857 253.835L325.87 253.777L322.288 248.232L324.065 247.931L326.411 251.676L327.408 247.366L329.062 247.086Z" fill="#D85575"/>
<path d="M331.95 246.507C332.869 246.352 333.613 246.453 334.18 246.811C334.746 247.162 335.104 247.778 335.253 248.661L335.826 252.048L334.215 252.32L334.09 251.581C333.86 252.187 333.303 252.565 332.421 252.714C331.965 252.792 331.554 252.781 331.19 252.684C330.833 252.586 330.543 252.415 330.321 252.173C330.098 251.931 329.958 251.637 329.899 251.291C329.806 250.739 329.938 250.271 330.297 249.885C330.663 249.498 331.279 249.231 332.147 249.084L333.515 248.853C333.452 248.478 333.289 248.21 333.028 248.05C332.765 247.883 332.406 247.837 331.95 247.914C331.633 247.968 331.329 248.072 331.038 248.227C330.753 248.374 330.517 248.55 330.333 248.755L329.512 247.657C329.797 247.374 330.153 247.133 330.581 246.932C331.015 246.73 331.472 246.588 331.95 246.507ZM332.655 251.483C332.949 251.434 333.199 251.323 333.405 251.152C333.609 250.974 333.737 250.744 333.788 250.463L333.685 249.857L332.505 250.056C331.799 250.176 331.485 250.467 331.563 250.93C331.6 251.151 331.715 251.313 331.906 251.417C332.104 251.512 332.354 251.534 332.655 251.483Z" fill="#D85575"/>
<path d="M345.621 246.261C346.086 246.326 346.471 246.503 346.778 246.792C347.082 247.073 347.275 247.453 347.356 247.931C347.47 248.608 347.294 249.175 346.826 249.632C346.365 250.081 345.631 250.39 344.623 250.561L340.629 251.236L339.324 243.513L343.097 242.875C344.038 242.716 344.789 242.774 345.35 243.05C345.919 243.325 346.255 243.771 346.36 244.389C346.423 244.764 346.388 245.114 346.254 245.439C346.127 245.763 345.916 246.037 345.621 246.261ZM341.327 244.559L341.635 246.379L343.411 246.079C343.853 246.004 344.174 245.87 344.376 245.677C344.578 245.484 344.654 245.237 344.603 244.935C344.552 244.634 344.4 244.429 344.147 244.32C343.893 244.204 343.545 244.184 343.104 244.258L341.327 244.559ZM344.263 249.237C344.734 249.157 345.074 249.02 345.283 248.826C345.5 248.631 345.581 248.371 345.526 248.047C345.418 247.408 344.889 247.168 343.94 247.328L341.855 247.681L342.178 249.589L344.263 249.237Z" fill="#D85575"/>
<path d="M350.32 243.401C351.239 243.246 351.982 243.347 352.55 243.705C353.116 244.056 353.474 244.672 353.623 245.555L354.195 248.942L352.585 249.214L352.46 248.475C352.229 249.082 351.673 249.459 350.79 249.609C350.334 249.686 349.924 249.676 349.56 249.578C349.203 249.48 348.913 249.309 348.69 249.067C348.468 248.825 348.327 248.531 348.269 248.185C348.175 247.634 348.308 247.165 348.666 246.779C349.032 246.392 349.649 246.125 350.517 245.978L351.885 245.747C351.822 245.372 351.659 245.104 351.397 244.944C351.135 244.777 350.775 244.732 350.319 244.809C350.003 244.862 349.699 244.966 349.408 245.122C349.122 245.268 348.887 245.444 348.702 245.649L347.881 244.551C348.166 244.269 348.523 244.027 348.95 243.826C349.385 243.624 349.842 243.482 350.32 243.401ZM351.025 248.377C351.319 248.328 351.569 248.217 351.774 248.046C351.979 247.868 352.106 247.638 352.157 247.358L352.055 246.751L350.874 246.95C350.168 247.07 349.854 247.361 349.933 247.824C349.97 248.045 350.084 248.207 350.276 248.311C350.474 248.406 350.723 248.428 351.025 248.377Z" fill="#D85575"/>
<path d="M356.526 243.249C356.683 242.927 356.922 242.663 357.243 242.458C357.571 242.251 357.964 242.109 358.42 242.032L358.688 243.621C358.494 243.638 358.364 243.653 358.298 243.664C357.805 243.747 357.443 243.952 357.211 244.279C356.977 244.598 356.907 245.034 357 245.585L357.474 248.388L355.753 248.679L354.75 242.743L356.393 242.465L356.526 243.249Z" fill="#D85575"/>
<path d="M365.481 240.929L366.484 246.864L364.851 247.14L364.732 246.434C364.547 246.73 364.309 246.975 364.016 247.168C363.722 247.354 363.392 247.478 363.024 247.54C362.244 247.672 361.588 247.552 361.057 247.181C360.525 246.809 360.184 246.182 360.035 245.299L359.468 241.945L361.189 241.654L361.713 244.755C361.875 245.711 362.356 246.121 363.158 245.985C363.57 245.916 363.879 245.728 364.084 245.42C364.288 245.106 364.345 244.684 364.256 244.154L363.759 241.22L365.481 240.929Z" fill="#D85575"/>
<path d="M243.85 228.238C245.902 227.891 247.736 227.933 249.352 228.363C250.99 228.79 252.324 229.563 253.353 230.682C254.382 231.802 255.042 233.223 255.333 234.944C255.62 236.643 255.464 238.201 254.864 239.619C254.26 241.015 253.255 242.183 251.848 243.125C250.459 244.04 248.739 244.672 246.687 245.018L242.02 245.808L243.1 252.195L237.739 253.102L233.821 229.934L243.85 228.238ZM245.651 240.7C247.261 240.428 248.428 239.879 249.151 239.053C249.87 238.205 250.121 237.141 249.905 235.861C249.685 234.559 249.098 233.637 248.144 233.095C247.186 232.531 245.901 232.385 244.291 232.657L239.922 233.396L241.282 241.439L245.651 240.7Z" fill="#393885"/>
<path d="M269.778 247.957C267.903 248.274 266.149 248.174 264.518 247.655C262.906 247.111 261.563 246.214 260.489 244.966C259.416 243.718 258.73 242.211 258.431 240.446C258.133 238.68 258.285 237.032 258.889 235.5C259.492 233.968 260.468 232.691 261.815 231.669C263.182 230.621 264.802 229.938 266.678 229.621C268.553 229.304 270.298 229.418 271.91 229.962C273.519 230.484 274.86 231.37 275.934 232.618C277.007 233.866 277.693 235.373 277.992 237.138C278.29 238.903 278.138 240.552 277.534 242.084C276.931 243.616 275.957 244.904 274.613 245.948C273.265 246.97 271.654 247.64 269.778 247.957ZM269.062 243.721C270.386 243.497 271.392 242.873 272.082 241.848C272.789 240.798 273.016 239.523 272.762 238.022C272.509 236.522 271.877 235.403 270.867 234.666C269.876 233.903 268.718 233.634 267.394 233.858C266.07 234.081 265.055 234.718 264.347 235.769C263.636 236.797 263.407 238.061 263.661 239.561C263.914 241.062 264.548 242.192 265.561 242.951C266.571 243.688 267.738 243.944 269.062 243.721Z" fill="#393885"/>
<path d="M278.796 220.9L283.959 220.027L288.112 244.585L282.948 245.458L278.796 220.9Z" fill="#393885"/>
<path d="M297.03 224.489C299.788 224.023 302.019 224.327 303.721 225.401C305.419 226.452 306.492 228.302 306.94 230.95L308.658 241.111L303.826 241.928L303.451 239.711C302.76 241.53 301.09 242.663 298.443 243.111C297.074 243.342 295.844 243.312 294.75 243.02C293.679 242.725 292.81 242.213 292.142 241.486C291.475 240.76 291.053 239.878 290.878 238.841C290.598 237.186 290.996 235.779 292.071 234.622C293.168 233.46 295.019 232.659 297.622 232.219L301.726 231.525C301.536 230.4 301.049 229.597 300.264 229.117C299.475 228.615 298.397 228.48 297.029 228.711C296.08 228.871 295.169 229.184 294.294 229.65C293.438 230.09 292.733 230.617 292.179 231.233L289.715 227.939C290.571 227.091 291.639 226.365 292.922 225.763C294.227 225.156 295.596 224.732 297.03 224.489ZM299.146 239.417C300.028 239.268 300.778 238.937 301.395 238.424C302.008 237.889 302.391 237.2 302.543 236.358L302.236 234.537L298.694 235.136C296.576 235.494 295.634 236.368 295.869 237.758C295.981 238.42 296.325 238.907 296.899 239.218C297.492 239.504 298.241 239.57 299.146 239.417Z" fill="#393885"/>
<path d="M319.806 215.396C321.859 215.049 323.693 215.09 325.309 215.521C326.947 215.947 328.28 216.72 329.309 217.84C330.339 218.96 330.999 220.38 331.29 222.101C331.577 223.8 331.42 225.359 330.82 226.776C330.217 228.172 329.211 229.341 327.804 230.282C326.416 231.198 324.696 231.829 322.644 232.176L317.977 232.965L319.057 239.353L313.695 240.259L309.778 217.091L319.806 215.396ZM321.607 227.858C323.218 227.585 324.385 227.036 325.107 226.21C325.827 225.362 326.078 224.299 325.862 223.019C325.641 221.717 325.054 220.795 324.1 220.253C323.142 219.688 321.858 219.542 320.247 219.815L315.878 220.553L317.238 228.596L321.607 227.858Z" fill="#393885"/>
<path d="M345.735 235.115C343.859 235.432 342.106 235.331 340.475 234.812C338.862 234.268 337.519 233.372 336.446 232.123C335.372 230.875 334.686 229.368 334.388 227.603C334.089 225.838 334.242 224.189 334.845 222.657C335.449 221.126 336.424 219.849 337.772 218.826C339.138 217.778 340.759 217.096 342.634 216.779C344.51 216.461 346.254 216.575 347.867 217.12C349.476 217.642 350.817 218.527 351.89 219.775C352.964 221.024 353.65 222.531 353.948 224.296C354.247 226.061 354.094 227.71 353.491 229.241C352.887 230.773 351.914 232.061 350.57 233.106C349.222 234.128 347.61 234.798 345.735 235.115ZM345.018 230.878C346.342 230.654 347.349 230.03 348.038 229.006C348.746 227.956 348.973 226.68 348.719 225.18C348.465 223.68 347.834 222.561 346.824 221.824C345.832 221.061 344.675 220.791 343.351 221.015C342.027 221.239 341.011 221.876 340.304 222.926C339.592 223.954 339.363 225.218 339.617 226.719C339.871 228.219 340.504 229.349 341.518 230.108C342.528 230.845 343.694 231.102 345.018 230.878Z" fill="#393885"/>
<path d="M354.753 208.057L359.916 207.184L364.068 231.743L358.905 232.616L354.753 208.057Z" fill="#393885"/>
<path d="M365.849 213.126L371.013 212.253L374.023 230.059L368.86 230.932L365.849 213.126ZM368.011 210.207C367.063 210.367 366.244 210.222 365.555 209.771C364.866 209.32 364.452 208.687 364.314 207.87C364.176 207.054 364.358 206.32 364.861 205.667C365.363 205.015 366.089 204.608 367.038 204.448C367.986 204.288 368.803 204.422 369.489 204.851C370.174 205.279 370.584 205.891 370.718 206.685C370.864 207.546 370.687 208.313 370.188 208.988C369.686 209.64 368.96 210.047 368.011 210.207Z" fill="#393885"/>
</g>
<path d="M223.236 408.906L175.86 416.634C174.497 416.857 173.572 418.142 173.795 419.504C174.017 420.867 175.302 421.792 176.665 421.569L224.041 413.841C225.403 413.619 226.328 412.334 226.106 410.971C225.883 409.609 224.598 408.684 223.236 408.906Z" fill="#E9E9E9"/>
<path d="M221.223 421.392L181.743 427.832C180.38 428.054 179.455 429.339 179.678 430.702C179.9 432.064 181.185 432.989 182.548 432.767L222.028 426.327C223.39 426.104 224.315 424.819 224.093 423.457C223.87 422.094 222.585 421.169 221.223 421.392Z" fill="#B2BEC3"/>
<path d="M199.793 386.381C199.437 384.201 197.381 382.721 195.201 383.077C193.021 383.433 191.541 385.489 191.897 387.669C192.253 389.849 194.309 391.329 196.489 390.973C198.669 390.617 200.149 388.561 199.793 386.381Z" fill="#FFE393"/>
<path d="M328.836 391.652L281.46 399.38C280.097 399.602 279.172 400.887 279.395 402.25C279.617 403.612 280.902 404.537 282.265 404.315L329.641 396.587C331.003 396.364 331.928 395.079 331.706 393.717C331.483 392.354 330.198 391.429 328.836 391.652Z" fill="#E9E9E9"/>
<path d="M326.822 404.138L287.342 410.578C285.979 410.8 285.054 412.085 285.277 413.448C285.499 414.81 286.784 415.735 288.147 415.513L327.627 409.073C328.989 408.85 329.914 407.565 329.692 406.203C329.469 404.84 328.184 403.915 326.822 404.138Z" fill="#B2BEC3"/>
<path d="M304.406 369.287C304.05 367.107 301.995 365.627 299.814 365.983C297.634 366.339 296.154 368.395 296.51 370.575C296.866 372.755 298.922 374.235 301.102 373.879C303.283 373.523 304.762 371.467 304.406 369.287Z" fill="#009490"/>
<path d="M432.461 374.72L385.085 382.448C383.722 382.67 382.797 383.955 383.02 385.318C383.242 386.68 384.527 387.605 385.89 387.383L433.266 379.655C434.628 379.432 435.553 378.147 435.331 376.785C435.108 375.422 433.823 374.497 432.461 374.72Z" fill="#E9E9E9"/>
<path d="M430.447 387.206L390.967 393.646C389.605 393.868 388.68 395.153 388.902 396.516C389.125 397.878 390.41 398.803 391.772 398.581L431.252 392.141C432.615 391.918 433.54 390.633 433.317 389.271C433.095 387.908 431.81 386.983 430.447 387.206Z" fill="#B2BEC3"/>
<path d="M409.019 352.194C408.663 350.014 406.607 348.534 404.427 348.89C402.247 349.246 400.767 351.302 401.123 353.482C401.479 355.662 403.535 357.142 405.715 356.786C407.895 356.43 409.375 354.374 409.019 352.194Z" fill="#98FFE0"/>
<path d="M241.247 72.6245L114.911 93.2325C111.912 93.7215 109.879 96.5484 110.368 99.5465C110.857 102.545 113.683 104.579 116.682 104.089L243.018 83.4815C246.016 82.9924 248.05 80.1656 247.561 77.1675C247.072 74.1694 244.245 72.1354 241.247 72.6245Z" fill="#E9E9E9"/>
<path d="M409.22 55.7945C407.041 42.4394 394.449 33.379 381.094 35.5575C367.739 37.736 358.678 50.3284 360.857 63.6835C363.035 77.0386 375.628 86.099 388.983 83.9205C402.338 81.742 411.398 69.1496 409.22 55.7945Z" fill="#FDEFFC" stroke="white" stroke-width="2"/>
<path d="M552.058 156.671L428.783 122.212C420.273 119.833 411.446 124.804 409.067 133.314L361.687 302.817C359.308 311.327 364.278 320.155 372.789 322.533L496.063 356.992C504.574 359.371 513.401 354.4 515.78 345.89L563.16 176.387C565.539 167.877 560.568 159.049 552.058 156.671Z" fill="white"/>
<path d="M414.462 276.033L417.305 276.833L421.957 260.191L419.114 259.391L415.47 260.391L414.611 263.465L418.264 262.43L414.462 276.033ZM423.014 278.423L426.019 279.263L435.643 266.852L436.38 264.217L426.129 261.352L425.392 263.987L432.661 266.019L423.014 278.423ZM433.514 284.537C433.859 284.742 434.251 284.855 434.652 284.865C435.053 284.874 435.45 284.78 435.804 284.591C436.505 284.093 436.99 283.346 437.16 282.503L438.023 279.418L435.168 278.618L434.338 281.588L435.817 282.001C435.77 282.466 435.565 282.901 435.236 283.234C435.069 283.376 434.864 283.466 434.646 283.491C434.428 283.517 434.207 283.478 434.012 283.378L433.514 284.537ZM446.726 285.389C447.716 285.679 448.765 285.706 449.769 285.467C450.746 285.235 451.645 284.753 452.378 284.067C453.135 283.366 453.677 282.464 453.941 281.467C454.173 280.662 454.235 279.818 454.123 278.988C454.016 278.168 453.708 277.388 453.226 276.716C452.744 276.044 452.103 275.502 451.361 275.138L456.125 272.583L456.862 269.948L446.662 267.095L445.929 269.718L452.817 271.644L446.859 274.414L447.516 276.965C448.027 276.837 448.562 276.841 449.071 276.976C449.457 277.069 449.819 277.243 450.133 277.485C450.447 277.728 450.707 278.034 450.895 278.383C451.082 278.731 451.197 279.113 451.235 279.507C451.273 279.9 451.232 280.297 451.115 280.675C451.017 281.055 450.843 281.411 450.604 281.723C450.366 282.035 450.067 282.295 449.726 282.489C449.384 282.683 449.008 282.807 448.618 282.852C448.228 282.898 447.833 282.865 447.456 282.755C446.85 282.596 446.31 282.248 445.914 281.763C445.494 281.245 445.27 280.596 445.28 279.929L442.38 279.904C442.389 280.747 442.587 281.577 442.959 282.334C443.335 283.073 443.861 283.726 444.505 284.249C445.159 284.78 445.917 285.168 446.73 285.389H446.726ZM462.855 289.561L465.675 290.349L466.444 287.599L468.004 288.035L468.731 285.435L467.175 285L468.386 280.666L465.566 279.877L464.355 284.211L460.155 283.039L468.639 273.239L465.46 272.35L456.977 282.15L456.25 284.75L463.623 286.811L462.855 289.561ZM476.127 293.645C477.132 293.937 478.196 293.959 479.212 293.71C480.202 293.463 481.114 292.973 481.866 292.283C482.635 291.584 483.186 290.679 483.455 289.675C483.746 288.703 483.776 287.671 483.543 286.684C483.329 285.751 482.861 284.896 482.19 284.213C481.485 283.489 480.595 282.973 479.617 282.721C478.398 282.367 477.09 282.481 475.951 283.042L476.423 281.355C476.575 280.801 476.867 280.294 477.27 279.885C477.67 279.471 478.171 279.168 478.724 279.008C479.322 278.835 479.957 278.839 480.552 279.02C481.008 279.148 481.429 279.376 481.785 279.689C482.145 279.997 482.434 280.379 482.631 280.81L485.188 279.419C484.797 278.667 484.237 278.017 483.551 277.519C482.868 277.016 482.098 276.643 481.279 276.419C480.177 276.084 479.006 276.045 477.884 276.305C476.842 276.554 475.894 277.098 475.153 277.871C474.342 278.735 473.763 279.791 473.473 280.94L472.062 286C471.735 287.087 471.697 288.24 471.95 289.346C472.182 290.379 472.695 291.328 473.433 292.087C474.171 292.846 475.105 293.386 476.131 293.646L476.127 293.645ZM476.874 290.975C476.356 290.838 475.886 290.562 475.516 290.175C475.157 289.792 474.897 289.325 474.761 288.818C474.624 288.304 474.629 287.763 474.775 287.252C474.915 286.731 475.194 286.257 475.582 285.882C475.965 285.518 476.432 285.254 476.942 285.116C477.464 284.972 478.015 284.975 478.535 285.125C479.054 285.264 479.523 285.547 479.889 285.94C480.259 286.319 480.523 286.788 480.655 287.301C480.792 287.823 480.785 288.372 480.635 288.89C480.496 289.409 480.214 289.878 479.82 290.244C479.44 290.608 478.973 290.868 478.463 290.999C477.942 291.134 477.395 291.126 476.878 290.975H476.874Z" fill="#2D3436"/>
<path d="M466.013 302.905L419.785 289.983C418.455 289.611 417.076 290.388 416.704 291.718C416.332 293.047 417.109 294.427 418.439 294.798L464.667 307.72C465.996 308.092 467.376 307.315 467.747 305.986C468.119 304.656 467.342 303.277 466.013 302.905Z" fill="#E9E9E9"/>
<path d="M532.341 167.772L439.885 141.928C431.375 139.549 422.548 144.52 420.169 153.03L402.94 214.668C400.561 223.178 405.531 232.005 414.042 234.384L506.498 260.228C515.008 262.607 523.835 257.636 526.214 249.126L543.443 187.489C545.822 178.978 540.852 170.151 532.341 167.772Z" fill="#FFF9E9"/>
<path d="M463.872 234.417C482.284 239.563 501.381 228.81 506.528 210.398C511.674 191.987 500.921 172.889 482.509 167.743C464.098 162.596 445 173.35 439.853 191.761C434.707 210.173 445.46 229.27 463.872 234.417Z" stroke="white" stroke-width="4"/>
<path d="M482.512 167.74C489.56 169.71 495.802 173.863 500.343 179.603C504.883 185.342 507.487 192.373 507.781 199.685C508.075 206.998 506.045 214.215 501.981 220.301C497.916 226.387 492.028 231.028 485.161 233.558" stroke="#FFC700" stroke-width="4" stroke-linecap="round"/>
<path d="M588.822 65L584.685 40.791L561.653 49.413L560.99 48.253L579.875 32.5L560.985 16.913L561.648 15.753L584.68 24.209L588.822 0H590.148L594.29 24.209L617.322 15.753L617.985 16.913L599.095 32.5L617.985 48.253L617.322 49.413L594.285 40.791L590.148 65H588.822Z" fill="white"/>
<path d="M299.985 486C302.194 486 303.985 484.209 303.985 482C303.985 479.791 302.194 478 299.985 478C297.776 478 295.985 479.791 295.985 482C295.985 484.209 297.776 486 299.985 486Z" fill="white"/>
<path d="M573.485 130C575.97 130 577.985 127.985 577.985 125.5C577.985 123.015 575.97 121 573.485 121C571 121 568.985 123.015 568.985 125.5C568.985 127.985 571 130 573.485 130Z" fill="white"/>
<path d="M621.613 290.039L498.349 255.607C489.839 253.23 481.014 258.201 478.637 266.711L431.293 436.199C428.916 444.709 433.887 453.534 442.397 455.911L565.661 490.343C574.171 492.72 582.996 487.749 585.373 479.239L632.717 309.751C635.094 301.241 630.123 292.416 621.613 290.039Z" fill="white"/>
<path d="M484.457 409.553L487.3 410.347L491.952 393.706L489.109 392.911L485.466 393.911L484.606 396.985L488.26 395.95L484.457 409.553ZM496.839 413.353C497.829 413.643 498.878 413.67 499.882 413.431C500.859 413.199 501.759 412.717 502.492 412.031C503.248 411.33 503.79 410.428 504.054 409.431C504.287 408.626 504.349 407.782 504.236 406.952C504.129 406.132 503.821 405.352 503.34 404.68C502.858 404.008 502.217 403.466 501.475 403.102L506.239 400.547L506.976 397.912L496.771 395.059L496.038 397.682L502.925 399.608L496.968 402.378L497.625 404.929C498.136 404.8 498.67 404.804 499.179 404.94C499.565 405.033 499.927 405.207 500.241 405.449C500.556 405.692 500.816 405.998 501.004 406.347C501.19 406.696 501.305 407.078 501.343 407.471C501.381 407.864 501.34 408.261 501.223 408.639C501.125 409.019 500.951 409.375 500.712 409.687C500.474 409.999 500.175 410.259 499.834 410.453C499.492 410.647 499.116 410.771 498.726 410.816C498.336 410.862 497.941 410.829 497.564 410.719C496.958 410.56 496.418 410.212 496.022 409.727C495.603 409.208 495.379 408.559 495.388 407.892L492.488 407.868C492.497 408.711 492.695 409.541 493.067 410.297C493.442 411.037 493.969 411.689 494.613 412.212C495.267 412.743 496.026 413.131 496.839 413.351V413.353ZM505.002 418.476C505.347 418.681 505.739 418.794 506.14 418.804C506.541 418.814 506.938 418.72 507.292 418.531C507.993 418.033 508.478 417.286 508.648 416.443L509.511 413.357L506.656 412.557L505.826 415.527L507.305 415.941C507.257 416.406 507.052 416.841 506.724 417.174C506.557 417.316 506.352 417.406 506.134 417.431C505.916 417.457 505.695 417.417 505.5 417.317L505.002 418.476ZM518.213 419.329C519.204 419.619 520.253 419.646 521.257 419.407C522.234 419.175 523.133 418.692 523.866 418.007C524.623 417.306 525.165 416.404 525.429 415.407C525.662 414.602 525.724 413.758 525.611 412.928C525.504 412.108 525.196 411.328 524.715 410.656C524.233 409.984 523.592 409.442 522.85 409.078L527.614 406.523L528.35 403.888L518.15 401.035L517.416 403.658L524.304 405.584L518.346 408.354L519.004 410.905C519.515 410.776 520.049 410.78 520.558 410.916C520.944 411.009 521.306 411.183 521.62 411.425C521.935 411.668 522.195 411.974 522.383 412.323C522.569 412.672 522.685 413.054 522.722 413.447C522.76 413.84 522.719 414.237 522.602 414.615C522.504 414.995 522.33 415.351 522.091 415.663C521.853 415.975 521.554 416.235 521.213 416.429C520.871 416.623 520.495 416.747 520.105 416.792C519.715 416.838 519.32 416.805 518.943 416.695C518.337 416.536 517.797 416.188 517.401 415.703C516.982 415.184 516.758 414.535 516.767 413.868L513.867 413.844C513.876 414.687 514.074 415.517 514.446 416.273C514.821 417.013 515.348 417.665 515.992 418.188C516.645 418.718 517.401 419.106 518.213 419.327V419.329ZM534.343 423.502L537.163 424.29L537.932 421.54L539.492 421.976L540.219 419.376L538.659 418.939L539.87 414.606L537.05 413.817L535.839 418.151L531.639 416.978L540.123 407.178L536.945 406.289L528.461 416.089L527.734 418.689L535.107 420.75L534.343 423.502ZM547.615 427.586C548.619 427.878 549.683 427.901 550.699 427.651C551.689 427.405 552.601 426.915 553.353 426.225C554.122 425.526 554.673 424.621 554.942 423.617C555.233 422.645 555.264 421.614 555.031 420.626C554.817 419.693 554.349 418.838 553.678 418.155C552.974 417.431 552.083 416.915 551.105 416.663C549.886 416.308 548.578 416.422 547.439 416.983L547.911 415.296C548.064 414.742 548.355 414.236 548.758 413.826C549.158 413.413 549.66 413.11 550.212 412.949C550.81 412.776 551.445 412.781 552.04 412.962C552.496 413.09 552.917 413.318 553.273 413.63C553.633 413.938 553.921 414.321 554.119 414.751L556.676 413.361C556.286 412.609 555.726 411.958 555.04 411.461C554.356 410.958 553.586 410.585 552.767 410.361C551.665 410.026 550.494 409.987 549.372 410.247C548.33 410.496 547.382 411.04 546.642 411.814C545.83 412.677 545.251 413.734 544.961 414.883L543.546 419.944C543.22 421.031 543.181 422.184 543.433 423.29C543.665 424.323 544.179 425.272 544.917 426.031C545.655 426.79 546.589 427.329 547.615 427.59V427.586ZM548.361 424.917C547.844 424.78 547.374 424.503 547.003 424.117C546.644 423.733 546.386 423.267 546.249 422.76C546.112 422.246 546.117 421.705 546.263 421.194C546.403 420.673 546.682 420.2 547.07 419.825C547.452 419.46 547.92 419.197 548.43 419.059C548.951 418.914 549.503 418.917 550.022 419.068C550.542 419.206 551.011 419.489 551.377 419.883C551.747 420.262 552.011 420.731 552.143 421.243C552.28 421.765 552.273 422.314 552.122 422.832C551.984 423.351 551.702 423.821 551.308 424.187C550.927 424.55 550.46 424.81 549.95 424.941C549.428 425.076 548.879 425.067 548.361 424.915V424.917Z" fill="#2D3436"/>
<path d="M537.012 436.697L490.788 423.785C489.459 423.414 488.08 424.191 487.708 425.52C487.337 426.85 488.114 428.229 489.443 428.6L535.667 441.512C536.997 441.884 538.376 441.107 538.747 439.777C539.119 438.448 538.342 437.069 537.012 436.697Z" fill="#E9E9E9"/>
<path d="M601.898 301.148L509.45 275.324C500.94 272.947 492.115 277.918 489.738 286.428L472.522 348.06C470.145 356.57 475.116 365.395 483.626 367.772L576.074 393.596C584.584 395.973 593.409 391.002 595.786 382.492L613.002 320.86C615.379 312.35 610.408 303.525 601.898 301.148Z" fill="#EBFAFA"/>
<path d="M514.711 330.792L510.859 329.716C509.795 329.419 508.692 330.04 508.395 331.104L502.477 352.29C502.18 353.354 502.801 354.457 503.865 354.754L507.717 355.83C508.781 356.127 509.884 355.506 510.181 354.442L516.099 333.256C516.396 332.192 515.775 331.089 514.711 330.792Z" fill="#02A5A1"/>
<path d="M537.742 322.694L533.89 321.618C532.826 321.321 531.723 321.942 531.426 323.006L521.742 357.674C521.445 358.738 522.066 359.841 523.13 360.138L526.982 361.214C528.046 361.511 529.149 360.89 529.446 359.826L539.13 325.158C539.427 324.094 538.806 322.991 537.742 322.694Z" fill="#02A5A1"/>
<path d="M562.658 307.855L558.806 306.779C557.742 306.482 556.639 307.103 556.342 308.167L541.009 363.058C540.712 364.122 541.333 365.225 542.397 365.522L546.249 366.598C547.313 366.895 548.416 366.274 548.713 365.21L564.046 310.319C564.343 309.255 563.722 308.152 562.658 307.855Z" fill="#02A5A1"/>
<path d="M574.38 340.206L570.528 339.13C569.464 338.833 568.361 339.454 568.064 340.518L560.263 368.445C559.966 369.509 560.587 370.612 561.651 370.909L565.503 371.985C566.567 372.282 567.67 371.661 567.967 370.597L575.768 342.67C576.065 341.606 575.444 340.503 574.38 340.206Z" fill="#02A5A1"/>
<defs>
<clipPath id="clip0_2456_138286">
<rect width="212.471" height="47.89" fill="white" transform="translate(168 236.421) rotate(-9.5966)"/>
</clipPath>
</defs>
</svg>
