<svg width="512" height="512" viewBox="0 0 512 512" fill="none" xmlns="http://www.w3.org/2000/svg">
<path fill-rule="evenodd" clip-rule="evenodd" d="M196.673 438.876L197.297 433.291C169.554 428.697 144.891 368.576 140.88 340.42C130.439 267.082 165.304 198.985 210.404 149.066C210.964 148.442 211.795 147.51 212.364 146.881L224.801 134.316C264.279 103.117 307.46 84.81 316.355 75.4156C272.508 22.679 152.867 32.8766 76.4677 35.6256C61.1346 124.458 40.9735 217.172 22.9877 305.206C-1.44617 424.796 -10.1063 478.115 138.098 478.267C141.485 471.355 137.199 436.719 196.677 438.876H196.673Z" fill="#6167B0"/>
<path fill-rule="evenodd" clip-rule="evenodd" d="M323.152 77.2241C333.193 93.3695 344.579 103.163 354.571 121.892C385.384 179.631 375.347 242.336 349.99 296.849C325.616 349.26 257.225 418.472 197.297 433.291L196.673 438.876C230.625 488.148 348.407 478.088 386.269 478.272C448.511 478.574 432.783 482.558 445.137 421.349C461.797 338.8 491.88 206.03 502.266 134.977C508.017 95.6412 492.146 66.6547 471.205 51.1885C443.614 30.8117 411.75 34.2491 373.667 35.9334C367.201 45.461 366.879 52.3267 364.699 63.6992L323.147 77.2241H323.152Z" fill="#FB3B6F"/>
<path fill-rule="evenodd" clip-rule="evenodd" d="M197.298 433.29C257.226 418.471 325.617 349.254 349.991 296.848C375.347 242.331 385.384 179.631 354.571 121.892C344.575 103.162 333.194 93.3686 323.152 77.2232L316.355 75.4242C307.461 84.814 264.28 103.121 224.802 134.324L212.365 146.89C211.8 147.514 210.969 148.45 210.405 149.075C165.301 198.993 130.435 267.086 140.88 340.429C144.887 368.585 169.555 428.701 197.298 433.299V433.29Z" fill="#393988"/>
</svg>
